<?xml version="1.0" encoding="utf-8"?>
<!-- Generator: Adobe Illustrator 17.1.0, SVG Export Plug-In . SVG Version: 6.00 Build 0)  -->
<!DOCTYPE svg PUBLIC "-//W3C//DTD SVG 1.1//EN" "http://www.w3.org/Graphics/SVG/1.1/DTD/svg11.dtd">
<svg version="1.1" id="Слой_1" xmlns="http://www.w3.org/2000/svg" xmlns:xlink="http://www.w3.org/1999/xlink" x="0px" y="0px"
	 viewBox="0 0 3480.5 2000" enable-background="new 0 0 3480.5 2000" xml:space="preserve">
<g>
	<rect x="0" fill="#F7F7F7" width="3480.5" height="1604.9"/>
	<defs>
		<filter id="Adobe_OpacityMaskFilter" filterUnits="userSpaceOnUse" x="0" y="744" width="3480.5" height="860.9">
			<feFlood  style="flood-color:white;flood-opacity:1" result="back"/>
			<feBlend  in="SourceGraphic" in2="back" mode="normal"/>
		</filter>
	</defs>
	<mask maskUnits="userSpaceOnUse" x="0" y="744" width="3480.5" height="860.9" id="SVGID_1_">
		<g filter="url(#Adobe_OpacityMaskFilter)">
			<defs>
				<filter id="Adobe_OpacityMaskFilter_1_" filterUnits="userSpaceOnUse" x="0" y="744" width="3480.5" height="860.9">
					<feFlood  style="flood-color:white;flood-opacity:1" result="back"/>
					<feBlend  in="SourceGraphic" in2="back" mode="normal"/>
				</filter>
			</defs>
			<mask maskUnits="userSpaceOnUse" x="0" y="744" width="3480.5" height="860.9" id="SVGID_1_">
				<g filter="url(#Adobe_OpacityMaskFilter_1_)">
				</g>
			</mask>
			<linearGradient id="SVGID_2_" gradientUnits="userSpaceOnUse" x1="-168.1085" y1="1174.4631" x2="980.9665" y2="1174.4631">
				<stop  offset="0" style="stop-color:#FFFFFF"/>
				<stop  offset="1" style="stop-color:#000000"/>
			</linearGradient>
			<polygon mask="url(#SVGID_1_)" fill="url(#SVGID_2_)" points="3480.5,938.7 3480.5,1604.9 0,1604.9 0,1221.8 24.3,1221.8 
				24.3,979.3 167.7,979.3 167.7,1102.9 306.9,1102.9 361.9,1160.5 417.8,1160.5 417.8,861.7 546.5,861.7 546.5,938.7 655.6,938.7 
				655.6,1087.3 802.2,1087.3 802.2,900.8 917.9,900.8 917.9,979.3 978,979.3 1030.1,924.8 1089.3,924.8 1089.3,744 1255,744 
				1255,1012.3 1424.3,1012.3 1424.3,1077 1490,1077 1490,979.3 1740.2,979.3 1740.2,1087.3 1835.9,1087.3 1835.9,938.7 
				1981.8,938.7 1981.8,1160.5 1990.4,1160.5 1990.4,861.7 2119,861.7 2119,938.7 2228.1,938.7 2228.1,1087.3 2374.6,1087.3 
				2374.6,900.8 2490.3,900.8 2490.3,979.3 2550.5,979.3 2602.6,924.8 2661.9,924.8 2661.9,744 2827.5,744 2827.5,1012.3 
				2996.8,1012.3 2996.8,1077 3062.5,1077 3062.5,979.3 3194.2,979.3 3194.2,1087.3 3408.3,1087.3 3408.3,938.7 			"/>
		</g>
	</mask>
	<linearGradient id="SVGID_3_" gradientUnits="userSpaceOnUse" x1="-168.1085" y1="1174.4631" x2="980.9665" y2="1174.4631">
		<stop  offset="0" style="stop-color:#B1D9F9"/>
		<stop  offset="1" style="stop-color:#FFFFFF"/>
	</linearGradient>
	<polygon fill="url(#SVGID_3_)" points="3480.5,938.7 3480.5,1604.9 0,1604.9 0,1221.8 24.3,1221.8 24.3,979.3 167.7,979.3 
		167.7,1102.9 306.9,1102.9 361.9,1160.5 417.8,1160.5 417.8,861.7 546.5,861.7 546.5,938.7 655.6,938.7 655.6,1087.3 802.2,1087.3 
		802.2,900.8 917.9,900.8 917.9,979.3 978,979.3 1030.1,924.8 1089.3,924.8 1089.3,744 1255,744 1255,1012.3 1424.3,1012.3 
		1424.3,1077 1490,1077 1490,979.3 1740.2,979.3 1740.2,1087.3 1835.9,1087.3 1835.9,938.7 1981.8,938.7 1981.8,1160.5 
		1990.4,1160.5 1990.4,861.7 2119,861.7 2119,938.7 2228.1,938.7 2228.1,1087.3 2374.6,1087.3 2374.6,900.8 2490.3,900.8 
		2490.3,979.3 2550.5,979.3 2602.6,924.8 2661.9,924.8 2661.9,744 2827.5,744 2827.5,1012.3 2996.8,1012.3 2996.8,1077 3062.5,1077 
		3062.5,979.3 3194.2,979.3 3194.2,1087.3 3408.3,1087.3 3408.3,938.7 	"/>
	<defs>
		<filter id="Adobe_OpacityMaskFilter_2_" filterUnits="userSpaceOnUse" x="0" y="744" width="3480.5" height="860.9">
			<feFlood  style="flood-color:white;flood-opacity:1" result="back"/>
			<feBlend  in="SourceGraphic" in2="back" mode="normal"/>
		</filter>
	</defs>
	<mask maskUnits="userSpaceOnUse" x="0" y="744" width="3480.5" height="860.9" id="SVGID_4_">
		<g filter="url(#Adobe_OpacityMaskFilter_2_)">
			<defs>
				<filter id="Adobe_OpacityMaskFilter_3_" filterUnits="userSpaceOnUse" x="0" y="744" width="3480.5" height="860.9">
					<feFlood  style="flood-color:white;flood-opacity:1" result="back"/>
					<feBlend  in="SourceGraphic" in2="back" mode="normal"/>
				</filter>
			</defs>
			<mask maskUnits="userSpaceOnUse" x="0" y="744" width="3480.5" height="860.9" id="SVGID_4_">
				<g filter="url(#Adobe_OpacityMaskFilter_3_)">
				</g>
			</mask>
			<linearGradient id="SVGID_5_" gradientUnits="userSpaceOnUse" x1="-308.2115" y1="1174.4631" x2="375.4175" y2="1174.4631">
				<stop  offset="0" style="stop-color:#FFFFFF"/>
				<stop  offset="1" style="stop-color:#000000"/>
			</linearGradient>
			<polygon mask="url(#SVGID_4_)" fill="url(#SVGID_5_)" points="3480.5,938.7 3480.5,1604.9 0,1604.9 0,1221.8 24.3,1221.8 
				24.3,979.3 167.7,979.3 167.7,1102.9 306.9,1102.9 361.9,1160.5 417.8,1160.5 417.8,861.7 546.5,861.7 546.5,938.7 655.6,938.7 
				655.6,1087.3 802.2,1087.3 802.2,900.8 917.9,900.8 917.9,979.3 978,979.3 1030.1,924.8 1089.3,924.8 1089.3,744 1255,744 
				1255,1012.3 1424.3,1012.3 1424.3,1077 1490,1077 1490,979.3 1740.2,979.3 1740.2,1087.3 1835.9,1087.3 1835.9,938.7 
				1981.8,938.7 1981.8,1160.5 1990.4,1160.5 1990.4,861.7 2119,861.7 2119,938.7 2228.1,938.7 2228.1,1087.3 2374.6,1087.3 
				2374.6,900.8 2490.3,900.8 2490.3,979.3 2550.5,979.3 2602.6,924.8 2661.9,924.8 2661.9,744 2827.5,744 2827.5,1012.3 
				2996.8,1012.3 2996.8,1077 3062.5,1077 3062.5,979.3 3194.2,979.3 3194.2,1087.3 3408.3,1087.3 3408.3,938.7 			"/>
		</g>
	</mask>
	<linearGradient id="SVGID_6_" gradientUnits="userSpaceOnUse" x1="-308.2115" y1="1174.4631" x2="375.4175" y2="1174.4631">
		<stop  offset="0" style="stop-color:#B1D9F9"/>
		<stop  offset="1" style="stop-color:#FFFFFF"/>
	</linearGradient>
	<polygon fill="url(#SVGID_6_)" points="3480.5,938.7 3480.5,1604.9 0,1604.9 0,1221.8 24.3,1221.8 24.3,979.3 167.7,979.3 
		167.7,1102.9 306.9,1102.9 361.9,1160.5 417.8,1160.5 417.8,861.7 546.5,861.7 546.5,938.7 655.6,938.7 655.6,1087.3 802.2,1087.3 
		802.2,900.8 917.9,900.8 917.9,979.3 978,979.3 1030.1,924.8 1089.3,924.8 1089.3,744 1255,744 1255,1012.3 1424.3,1012.3 
		1424.3,1077 1490,1077 1490,979.3 1740.2,979.3 1740.2,1087.3 1835.9,1087.3 1835.9,938.7 1981.8,938.7 1981.8,1160.5 
		1990.4,1160.5 1990.4,861.7 2119,861.7 2119,938.7 2228.1,938.7 2228.1,1087.3 2374.6,1087.3 2374.6,900.8 2490.3,900.8 
		2490.3,979.3 2550.5,979.3 2602.6,924.8 2661.9,924.8 2661.9,744 2827.5,744 2827.5,1012.3 2996.8,1012.3 2996.8,1077 3062.5,1077 
		3062.5,979.3 3194.2,979.3 3194.2,1087.3 3408.3,1087.3 3408.3,938.7 	"/>
	<linearGradient id="SVGID_7_" gradientUnits="userSpaceOnUse" x1="1740.2451" y1="1809.9772" x2="1740.2451" y2="1256.6432">
		<stop  offset="0" style="stop-color:#B3C45A"/>
		<stop  offset="1" style="stop-color:#639C38"/>
	</linearGradient>
	<rect x="0" y="1379" fill="url(#SVGID_7_)" width="3480.5" height="621"/>
	<rect x="0" y="1591.3" fill="#A5B554" width="3480.5" height="408.7"/>
	<rect x="0" y="1497.3" fill="#BACC5F" width="3480.5" height="32.8"/>
	<linearGradient id="SVGID_8_" gradientUnits="userSpaceOnUse" x1="1740.2451" y1="1409.2118" x2="1740.2451" y2="2131.8333">
		<stop  offset="0" style="stop-color:#FADDAF"/>
		<stop  offset="1" style="stop-color:#FABD5A"/>
	</linearGradient>
	<polygon fill="url(#SVGID_8_)" points="2000.2,1636 1906.8,1379 1829.5,1379 1752.1,1379 1658.7,1636 0,1636 0,1733.5 
		3480.5,1733.5 3480.5,1636 	"/>
	<g>
		<defs>
			<filter id="Adobe_OpacityMaskFilter_4_" filterUnits="userSpaceOnUse" x="603.3" y="545.9" width="1226.1" height="780">
				<feFlood  style="flood-color:white;flood-opacity:1" result="back"/>
				<feBlend  in="SourceGraphic" in2="back" mode="normal"/>
			</filter>
		</defs>
		<mask maskUnits="userSpaceOnUse" x="603.3" y="545.9" width="1226.1" height="780" id="SVGID_9_">
			<g filter="url(#Adobe_OpacityMaskFilter_4_)">
				<defs>
					<filter id="Adobe_OpacityMaskFilter_5_" filterUnits="userSpaceOnUse" x="603.3" y="545.9" width="1226.1" height="780">
						<feFlood  style="flood-color:white;flood-opacity:1" result="back"/>
						<feBlend  in="SourceGraphic" in2="back" mode="normal"/>
					</filter>
				</defs>
				<mask maskUnits="userSpaceOnUse" x="603.3" y="545.9" width="1226.1" height="780" id="SVGID_9_">
					<g filter="url(#Adobe_OpacityMaskFilter_5_)">
					</g>
				</mask>
				<linearGradient id="SVGID_10_" gradientUnits="userSpaceOnUse" x1="2190.7002" y1="935.8635" x2="564.7919" y2="935.8635">
					<stop  offset="0" style="stop-color:#FFFFFF"/>
					<stop  offset="0.6146" style="stop-color:#FFFFFF"/>
					<stop  offset="1" style="stop-color:#000000"/>
				</linearGradient>
				<rect x="603.3" y="545.9" mask="url(#SVGID_9_)" fill="url(#SVGID_10_)" width="1226.1" height="780"/>
			</g>
		</mask>
		<linearGradient id="SVGID_11_" gradientUnits="userSpaceOnUse" x1="2190.7002" y1="935.8635" x2="564.7919" y2="935.8635">
			<stop  offset="0" style="stop-color:#D1C3A4"/>
			<stop  offset="0.6146" style="stop-color:#D7C9A8"/>
			<stop  offset="1" style="stop-color:#D7C9A8"/>
		</linearGradient>
		<rect x="603.3" y="545.9" fill="url(#SVGID_11_)" width="1226.1" height="780"/>
		<defs>
			<filter id="Adobe_OpacityMaskFilter_6_" filterUnits="userSpaceOnUse" x="1829.5" y="545.9" width="1226.1" height="780">
				<feFlood  style="flood-color:white;flood-opacity:1" result="back"/>
				<feBlend  in="SourceGraphic" in2="back" mode="normal"/>
			</filter>
		</defs>
		<mask maskUnits="userSpaceOnUse" x="1829.5" y="545.9" width="1226.1" height="780" id="SVGID_12_">
			<g filter="url(#Adobe_OpacityMaskFilter_6_)">
				<defs>
					<filter id="Adobe_OpacityMaskFilter_7_" filterUnits="userSpaceOnUse" x="1829.5" y="545.9" width="1226.1" height="780">
						<feFlood  style="flood-color:white;flood-opacity:1" result="back"/>
						<feBlend  in="SourceGraphic" in2="back" mode="normal"/>
					</filter>
				</defs>
				<mask maskUnits="userSpaceOnUse" x="1829.5" y="545.9" width="1226.1" height="780" id="SVGID_12_">
					<g filter="url(#Adobe_OpacityMaskFilter_7_)">
					</g>
				</mask>
				<linearGradient id="SVGID_13_" gradientUnits="userSpaceOnUse" x1="1781.0847" y1="935.8635" x2="3099.3818" y2="935.8635">
					<stop  offset="0" style="stop-color:#FFFFFF"/>
					<stop  offset="0.6146" style="stop-color:#FFFFFF"/>
					<stop  offset="1" style="stop-color:#000000"/>
				</linearGradient>
				<rect x="1829.5" y="545.9" mask="url(#SVGID_12_)" fill="url(#SVGID_13_)" width="1226.1" height="780"/>
			</g>
		</mask>
		<linearGradient id="SVGID_14_" gradientUnits="userSpaceOnUse" x1="1781.0847" y1="935.8635" x2="3099.3818" y2="935.8635">
			<stop  offset="0" style="stop-color:#D1C3A4"/>
			<stop  offset="0.6146" style="stop-color:#D7C9A8"/>
			<stop  offset="1" style="stop-color:#D7C9A8"/>
		</linearGradient>
		<rect x="1829.5" y="545.9" fill="url(#SVGID_14_)" width="1226.1" height="780"/>
		<defs>
			<filter id="Adobe_OpacityMaskFilter_8_" filterUnits="userSpaceOnUse" x="1829.5" y="904.2" width="1240.1" height="47.1">
				<feFlood  style="flood-color:white;flood-opacity:1" result="back"/>
				<feBlend  in="SourceGraphic" in2="back" mode="normal"/>
			</filter>
		</defs>
		<mask maskUnits="userSpaceOnUse" x="1829.5" y="904.2" width="1240.1" height="47.1" id="SVGID_15_">
			<g filter="url(#Adobe_OpacityMaskFilter_8_)">
				<defs>
					<filter id="Adobe_OpacityMaskFilter_9_" filterUnits="userSpaceOnUse" x="1829.5" y="904.2" width="1240.1" height="47.1">
						<feFlood  style="flood-color:white;flood-opacity:1" result="back"/>
						<feBlend  in="SourceGraphic" in2="back" mode="normal"/>
					</filter>
				</defs>
				<mask maskUnits="userSpaceOnUse" x="1829.5" y="904.2" width="1240.1" height="47.1" id="SVGID_15_">
					<g filter="url(#Adobe_OpacityMaskFilter_9_)">
					</g>
				</mask>
				<linearGradient id="SVGID_16_" gradientUnits="userSpaceOnUse" x1="2419.5283" y1="927.7631" x2="3162.1147" y2="927.7631">
					<stop  offset="0" style="stop-color:#FFFFFF"/>
					<stop  offset="1" style="stop-color:#000000"/>
				</linearGradient>
				<rect x="1829.5" y="904.2" mask="url(#SVGID_15_)" fill="url(#SVGID_16_)" width="1240.1" height="47.1"/>
			</g>
		</mask>
		<linearGradient id="SVGID_17_" gradientUnits="userSpaceOnUse" x1="2419.5283" y1="927.7631" x2="3162.1147" y2="927.7631">
			<stop  offset="0" style="stop-color:#E5D4B4"/>
			<stop  offset="1" style="stop-color:#FFECC7"/>
		</linearGradient>
		<rect x="1829.5" y="904.2" fill="url(#SVGID_17_)" width="1240.1" height="47.1"/>
		<defs>
			<filter id="Adobe_OpacityMaskFilter_10_" filterUnits="userSpaceOnUse" x="586.5" y="904.2" width="1240.1" height="47.1">
				<feFlood  style="flood-color:white;flood-opacity:1" result="back"/>
				<feBlend  in="SourceGraphic" in2="back" mode="normal"/>
			</filter>
		</defs>
		<mask maskUnits="userSpaceOnUse" x="586.5" y="904.2" width="1240.1" height="47.1" id="SVGID_18_">
			<g filter="url(#Adobe_OpacityMaskFilter_10_)">
				<defs>
					<filter id="Adobe_OpacityMaskFilter_11_" filterUnits="userSpaceOnUse" x="586.5" y="904.2" width="1240.1" height="47.1">
						<feFlood  style="flood-color:white;flood-opacity:1" result="back"/>
						<feBlend  in="SourceGraphic" in2="back" mode="normal"/>
					</filter>
				</defs>
				<mask maskUnits="userSpaceOnUse" x="586.5" y="904.2" width="1240.1" height="47.1" id="SVGID_18_">
					<g filter="url(#Adobe_OpacityMaskFilter_11_)">
					</g>
				</mask>
				<linearGradient id="SVGID_19_" gradientUnits="userSpaceOnUse" x1="1216.9128" y1="927.7631" x2="638.5999" y2="927.7631">
					<stop  offset="0" style="stop-color:#FFFFFF"/>
					<stop  offset="1" style="stop-color:#000000"/>
				</linearGradient>
				<rect x="586.5" y="904.2" mask="url(#SVGID_18_)" fill="url(#SVGID_19_)" width="1240.1" height="47.1"/>
			</g>
		</mask>
		<linearGradient id="SVGID_20_" gradientUnits="userSpaceOnUse" x1="1216.9128" y1="927.7631" x2="638.5999" y2="927.7631">
			<stop  offset="0" style="stop-color:#E5D4B4"/>
			<stop  offset="1" style="stop-color:#FFECC7"/>
		</linearGradient>
		<rect x="586.5" y="904.2" fill="url(#SVGID_20_)" width="1240.1" height="47.1"/>
		<defs>
			<filter id="Adobe_OpacityMaskFilter_12_" filterUnits="userSpaceOnUse" x="1827.1" y="278" width="1254.6" height="270.3">
				<feFlood  style="flood-color:white;flood-opacity:1" result="back"/>
				<feBlend  in="SourceGraphic" in2="back" mode="normal"/>
			</filter>
		</defs>
		<mask maskUnits="userSpaceOnUse" x="1827.1" y="278" width="1254.6" height="270.3" id="SVGID_21_">
			<g filter="url(#Adobe_OpacityMaskFilter_12_)">
				<defs>
					<filter id="Adobe_OpacityMaskFilter_13_" filterUnits="userSpaceOnUse" x="1827.1" y="278" width="1254.6" height="270.3">
						<feFlood  style="flood-color:white;flood-opacity:1" result="back"/>
						<feBlend  in="SourceGraphic" in2="back" mode="normal"/>
					</filter>
				</defs>
				<mask maskUnits="userSpaceOnUse" x="1827.1" y="278" width="1254.6" height="270.3" id="SVGID_21_">
					<g filter="url(#Adobe_OpacityMaskFilter_13_)">
					</g>
				</mask>
				<linearGradient id="SVGID_22_" gradientUnits="userSpaceOnUse" x1="1834.1836" y1="413.1604" x2="3035.3115" y2="413.1604">
					<stop  offset="0" style="stop-color:#FFFFFF"/>
					<stop  offset="1" style="stop-color:#000000"/>
				</linearGradient>
				<polygon mask="url(#SVGID_21_)" fill="url(#SVGID_22_)" points="3081.7,548.3 1827.1,548.3 1827.1,278 2876.9,278 				"/>
			</g>
		</mask>
		<linearGradient id="SVGID_23_" gradientUnits="userSpaceOnUse" x1="1834.1836" y1="413.1604" x2="3035.3115" y2="413.1604">
			<stop  offset="0" style="stop-color:#CBBD9F"/>
			<stop  offset="1" style="stop-color:#D7C9A8"/>
		</linearGradient>
		<polygon fill="url(#SVGID_23_)" points="3081.7,548.3 1827.1,548.3 1827.1,278 2876.9,278 		"/>
		<defs>
			<filter id="Adobe_OpacityMaskFilter_14_" filterUnits="userSpaceOnUse" x="573.1" y="278" width="1254.6" height="270.3">
				<feFlood  style="flood-color:white;flood-opacity:1" result="back"/>
				<feBlend  in="SourceGraphic" in2="back" mode="normal"/>
			</filter>
		</defs>
		<mask maskUnits="userSpaceOnUse" x="573.1" y="278" width="1254.6" height="270.3" id="SVGID_24_">
			<g filter="url(#Adobe_OpacityMaskFilter_14_)">
				<defs>
					<filter id="Adobe_OpacityMaskFilter_15_" filterUnits="userSpaceOnUse" x="573.1" y="278" width="1254.6" height="270.3">
						<feFlood  style="flood-color:white;flood-opacity:1" result="back"/>
						<feBlend  in="SourceGraphic" in2="back" mode="normal"/>
					</filter>
				</defs>
				<mask maskUnits="userSpaceOnUse" x="573.1" y="278" width="1254.6" height="270.3" id="SVGID_24_">
					<g filter="url(#Adobe_OpacityMaskFilter_15_)">
					</g>
				</mask>
				<linearGradient id="SVGID_25_" gradientUnits="userSpaceOnUse" x1="2223.571" y1="413.1604" x2="509.2533" y2="413.1604">
					<stop  offset="0" style="stop-color:#FFFFFF"/>
					<stop  offset="1" style="stop-color:#000000"/>
				</linearGradient>
				<polygon mask="url(#SVGID_24_)" fill="url(#SVGID_25_)" points="573.1,548.3 1827.7,548.3 1827.7,278 778,278 				"/>
			</g>
		</mask>
		<linearGradient id="SVGID_26_" gradientUnits="userSpaceOnUse" x1="2223.571" y1="413.1604" x2="509.2533" y2="413.1604">
			<stop  offset="0" style="stop-color:#CBBD9F"/>
			<stop  offset="1" style="stop-color:#D7C9A8"/>
		</linearGradient>
		<polygon fill="url(#SVGID_26_)" points="573.1,548.3 1827.7,548.3 1827.7,278 778,278 		"/>
		<rect x="585.3" y="1277" fill="#CBBD9F" width="2488.3" height="102"/>
		<rect x="1248.4" y="545.9" fill="#E5D4B4" width="1162.1" height="716.6"/>
		<g>
			<polygon fill="#E5D4B4" points="1200.4,573.4 1829.5,96.8 2458.5,573.4 			"/>
			<path fill="#FDEED3" d="M1306.8,1262.5v-57.8h10.3v-4.3c24.6-71.4,29.5-211.3,29.5-306.1c0,0,3.9-114.4-8.8-162.6v-16.6
				c0,0-4.7-19.1,1.2-31.6h-21.8v-28.9h-10.3v-55.1h10.3v-26.2h59.6h60.8v26.2h10.3v55.1h-10.3v28.9h-21.8
				c2.3,4.8,2.9,10.5,2.9,15.9c0,8.5-1.8,15.7-1.8,15.7v16.6c0,0-8.8,29.8-8.8,162.6c0,94.8,4.9,234.7,29.5,306.1v4.3h10.3v57.8
				H1306.8z"/>
			<path fill="#FDEED3" d="M1537.2,1262.5v-57.8h10.3v-4.3c24.6-71.4,29.5-211.3,29.5-306.1c0,0,3.9-114.4-8.8-162.6v-16.6
				c0,0-4.7-19.1,1.2-31.6h-21.8v-28.9h-10.3v-55.1h10.3v-26.2h59.6h60.8v26.2h10.3v55.1H1668v28.9h-21.8c2.3,4.8,2.9,10.5,2.9,15.9
				c0,8.5-1.8,15.7-1.8,15.7v16.6c0,0-8.8,29.8-8.8,162.6c0,94.8,4.9,234.7,29.5,306.1v4.3h10.3v57.8H1537.2z"/>
		</g>
		<path fill="#FDEED3" d="M2352.1,1262.5v-57.8h-10.3v-4.3c-24.6-71.4-29.5-211.3-29.5-306.1c0,0-3.9-114.4,8.8-162.6v-16.6
			c0,0,4.7-19.1-1.2-31.6h21.8v-28.9h10.3v-55.1h-10.3v-26.2h-59.6h-60.8v26.2H2211v55.1h10.3v28.9h21.8c-2.3,4.8-2.9,10.5-2.9,15.9
			c0,8.5,1.8,15.7,1.8,15.7v16.6c0,0,8.8,29.8,8.8,162.6c0,94.8-4.9,234.7-29.5,306.1v4.3H2211v57.8H2352.1z"/>
		<path fill="#FDEED3" d="M2121.8,1262.5v-57.8h-10.3v-4.3c-24.6-71.4-29.5-211.3-29.5-306.1c0,0-3.9-114.4,8.8-162.6v-16.6
			c0,0,4.7-19.1-1.2-31.6h21.8v-28.9h10.3v-55.1h-10.3v-26.2h-59.6H1991v26.2h-10.3v55.1h10.3v28.9h21.8c-2.3,4.8-2.9,10.5-2.9,15.9
			c0,8.5,1.8,15.7,1.8,15.7v16.6c0,0,8.8,29.8,8.8,162.6c0,94.8-4.9,234.7-29.5,306.1v4.3h-10.3v57.8H2121.8z"/>
		<g>
			<path fill="#FDEED3" d="M2391.6,572H1267.4l562.1-425.9L2391.6,572z M1355.1,542.6h948.7l-474.4-359.4L1355.1,542.6z"/>
		</g>
		<linearGradient id="SVGID_27_" gradientUnits="userSpaceOnUse" x1="1829.4678" y1="1300.7334" x2="1829.4678" y2="927.8248">
			<stop  offset="0" style="stop-color:#D1C3A4"/>
			<stop  offset="0.9948" style="stop-color:#C2B297"/>
		</linearGradient>
		<rect x="1752.1" y="954" fill="url(#SVGID_27_)" width="154.7" height="308.4"/>
		<g>
			<path fill="#FDEED3" d="M1934.9,1288.3H1724V928.2h210.9V1288.3z M1727.9,1284.4h203V932.1h-203V1284.4z"/>
		</g>
		<rect x="1259" y="569.2" fill="#FDEED3" width="1140.9" height="23.8"/>
		<g>
			<linearGradient id="SVGID_28_" gradientUnits="userSpaceOnUse" x1="1829.4678" y1="933.9622" x2="1829.4678" y2="694.8223">
				<stop  offset="0" style="stop-color:#D1C3A4"/>
				<stop  offset="0.9948" style="stop-color:#C2B297"/>
			</linearGradient>
			<path fill="url(#SVGID_28_)" d="M1892.1,865.5h-125.3V744.7c0-34.6,28-62.6,62.6-62.6l0,0c34.6,0,62.6,28,62.6,62.6V865.5z"/>
			<rect x="1766.8" y="747.9" fill="#E5D4B4" width="125.3" height="6.8"/>
		</g>
		<g>
			<linearGradient id="SVGID_29_" gradientUnits="userSpaceOnUse" x1="2588.873" y1="933.9622" x2="2588.873" y2="694.8223">
				<stop  offset="0" style="stop-color:#D1C3A4"/>
				<stop  offset="0.9948" style="stop-color:#C2B297"/>
			</linearGradient>
			<path fill="url(#SVGID_29_)" d="M2651.5,865.5h-125.3V744.7c0-34.6,28-62.6,62.6-62.6l0,0c34.6,0,62.6,28,62.6,62.6V865.5z"/>
			<rect x="2526.2" y="747.9" fill="#E5D4B4" width="125.3" height="6.8"/>
		</g>
		<g>
			<defs>
				<filter id="Adobe_OpacityMaskFilter_16_" filterUnits="userSpaceOnUse" x="2795.6" y="682.1" width="125.3" height="183.4">
					<feFlood  style="flood-color:white;flood-opacity:1" result="back"/>
					<feBlend  in="SourceGraphic" in2="back" mode="normal"/>
				</filter>
			</defs>
			<mask maskUnits="userSpaceOnUse" x="2795.6" y="682.1" width="125.3" height="183.4" id="SVGID_30_">
				<g filter="url(#Adobe_OpacityMaskFilter_16_)">
					<defs>
						<filter id="Adobe_OpacityMaskFilter_17_" filterUnits="userSpaceOnUse" x="2795.6" y="682.1" width="125.3" height="183.4">
							<feFlood  style="flood-color:white;flood-opacity:1" result="back"/>
							<feBlend  in="SourceGraphic" in2="back" mode="normal"/>
						</filter>
					</defs>
					<mask maskUnits="userSpaceOnUse" x="2795.6" y="682.1" width="125.3" height="183.4" id="SVGID_30_">
						<g filter="url(#Adobe_OpacityMaskFilter_17_)">
						</g>
					</mask>
					<linearGradient id="SVGID_31_" gradientUnits="userSpaceOnUse" x1="2926.49" y1="773.7842" x2="2653.9871" y2="773.7842">
						<stop  offset="0" style="stop-color:#000000"/>
						<stop  offset="0.3333" style="stop-color:#FFFFFF"/>
						<stop  offset="0.9948" style="stop-color:#FFFFFF"/>
					</linearGradient>
					<path mask="url(#SVGID_30_)" fill="url(#SVGID_31_)" d="M2920.9,865.5h-125.3V744.7c0-34.6,28-62.6,62.6-62.6l0,0
						c34.6,0,62.6,28,62.6,62.6V865.5z"/>
				</g>
			</mask>
			<linearGradient id="SVGID_32_" gradientUnits="userSpaceOnUse" x1="2926.49" y1="773.7842" x2="2653.9871" y2="773.7842">
				<stop  offset="0" style="stop-color:#D1C3A4"/>
				<stop  offset="0.3333" style="stop-color:#D1C3A4"/>
				<stop  offset="0.9948" style="stop-color:#C2B297"/>
			</linearGradient>
			<path fill="url(#SVGID_32_)" d="M2920.9,865.5h-125.3V744.7c0-34.6,28-62.6,62.6-62.6l0,0c34.6,0,62.6,28,62.6,62.6V865.5z"/>
			<rect x="2795.6" y="747.9" fill="#E5D4B4" width="125.3" height="6.8"/>
		</g>
		<g>
			<linearGradient id="SVGID_33_" gradientUnits="userSpaceOnUse" x1="2588.873" y1="1231.4326" x2="2588.873" y2="992.2934">
				<stop  offset="0" style="stop-color:#D1C3A4"/>
				<stop  offset="0.9948" style="stop-color:#C2B297"/>
			</linearGradient>
			<path fill="url(#SVGID_33_)" d="M2651.5,1162.9h-125.3v-120.8c0-34.6,28-62.6,62.6-62.6l0,0c34.6,0,62.6,28,62.6,62.6V1162.9z"/>
			<rect x="2526.2" y="1045.4" fill="#E5D4B4" width="125.3" height="6.8"/>
		</g>
		<g>
			<defs>
				<filter id="Adobe_OpacityMaskFilter_18_" filterUnits="userSpaceOnUse" x="2795.6" y="979.6" width="125.3" height="183.4">
					<feFlood  style="flood-color:white;flood-opacity:1" result="back"/>
					<feBlend  in="SourceGraphic" in2="back" mode="normal"/>
				</filter>
			</defs>
			<mask maskUnits="userSpaceOnUse" x="2795.6" y="979.6" width="125.3" height="183.4" id="SVGID_34_">
				<g filter="url(#Adobe_OpacityMaskFilter_18_)">
					<defs>
						<filter id="Adobe_OpacityMaskFilter_19_" filterUnits="userSpaceOnUse" x="2795.6" y="979.6" width="125.3" height="183.4">
							<feFlood  style="flood-color:white;flood-opacity:1" result="back"/>
							<feBlend  in="SourceGraphic" in2="back" mode="normal"/>
						</filter>
					</defs>
					<mask maskUnits="userSpaceOnUse" x="2795.6" y="979.6" width="125.3" height="183.4" id="SVGID_34_">
						<g filter="url(#Adobe_OpacityMaskFilter_19_)">
						</g>
					</mask>
					<linearGradient id="SVGID_35_" gradientUnits="userSpaceOnUse" x1="2926.49" y1="1071.2551" x2="2709.877" y2="1071.2551">
						<stop  offset="0" style="stop-color:#000000"/>
						<stop  offset="0.3333" style="stop-color:#FFFFFF"/>
						<stop  offset="0.9948" style="stop-color:#FFFFFF"/>
					</linearGradient>
					<path mask="url(#SVGID_34_)" fill="url(#SVGID_35_)" d="M2920.9,1162.9h-125.3v-120.8c0-34.6,28-62.6,62.6-62.6l0,0
						c34.6,0,62.6,28,62.6,62.6V1162.9z"/>
				</g>
			</mask>
			<linearGradient id="SVGID_36_" gradientUnits="userSpaceOnUse" x1="2926.49" y1="1071.2551" x2="2709.877" y2="1071.2551">
				<stop  offset="0" style="stop-color:#D1C3A4"/>
				<stop  offset="0.3333" style="stop-color:#D1C3A4"/>
				<stop  offset="0.9948" style="stop-color:#C2B297"/>
			</linearGradient>
			<path fill="url(#SVGID_36_)" d="M2920.9,1162.9h-125.3v-120.8c0-34.6,28-62.6,62.6-62.6l0,0c34.6,0,62.6,28,62.6,62.6V1162.9z"/>
			<rect x="2795.6" y="1045.4" fill="#E5D4B4" width="125.3" height="6.8"/>
		</g>
		<g>
			<linearGradient id="SVGID_37_" gradientUnits="userSpaceOnUse" x1="761.4724" y1="773.7842" x2="860.7883" y2="773.7842">
				<stop  offset="0" style="stop-color:#D1C3A4"/>
				<stop  offset="0.9948" style="stop-color:#C2B297"/>
			</linearGradient>
			<path fill="url(#SVGID_37_)" d="M867.1,865.5H741.9V744.7c0-34.6,28-62.6,62.6-62.6l0,0c34.6,0,62.6,28,62.6,62.6V865.5z"/>
			<rect x="741.9" y="747.9" fill="#E5D4B4" width="125.3" height="6.8"/>
		</g>
		<g>
			<linearGradient id="SVGID_38_" gradientUnits="userSpaceOnUse" x1="1073.8569" y1="933.9622" x2="1073.8569" y2="694.8223">
				<stop  offset="0" style="stop-color:#D1C3A4"/>
				<stop  offset="0.9948" style="stop-color:#C2B297"/>
			</linearGradient>
			<path fill="url(#SVGID_38_)" d="M1136.5,865.5h-125.3V744.7c0-34.6,28-62.6,62.6-62.6l0,0c34.6,0,62.6,28,62.6,62.6V865.5z"/>
			<rect x="1011.2" y="747.9" fill="#E5D4B4" width="125.3" height="6.8"/>
		</g>
		<g>
			<linearGradient id="SVGID_39_" gradientUnits="userSpaceOnUse" x1="751.1477" y1="1071.2551" x2="853.301" y2="1071.2551">
				<stop  offset="0" style="stop-color:#D1C3A4"/>
				<stop  offset="0.9948" style="stop-color:#C2B297"/>
			</linearGradient>
			<path fill="url(#SVGID_39_)" d="M867.1,1162.9H741.9v-120.8c0-34.6,28-62.6,62.6-62.6l0,0c34.6,0,62.6,28,62.6,62.6V1162.9z"/>
			<rect x="741.9" y="1045.4" fill="#E5D4B4" width="125.3" height="6.8"/>
		</g>
		<g>
			<linearGradient id="SVGID_40_" gradientUnits="userSpaceOnUse" x1="1073.8569" y1="1231.4326" x2="1073.8569" y2="992.2934">
				<stop  offset="0" style="stop-color:#D1C3A4"/>
				<stop  offset="0.9948" style="stop-color:#C2B297"/>
			</linearGradient>
			<path fill="url(#SVGID_40_)" d="M1136.5,1162.9h-125.3v-120.8c0-34.6,28-62.6,62.6-62.6l0,0c34.6,0,62.6,28,62.6,62.6V1162.9z"/>
			<rect x="1011.2" y="1045.4" fill="#E5D4B4" width="125.3" height="6.8"/>
		</g>
		<g>
			<path fill="#FDEED3" d="M2024.1,497.3h-389.3V424h389.3V497.3z M1642.7,489.4h373.5v-57.6h-373.5V489.4z"/>
		</g>
		<linearGradient id="SVGID_41_" gradientUnits="userSpaceOnUse" x1="1829.4678" y1="1353.2365" x2="1829.4678" y2="1273.325">
			<stop  offset="0" style="stop-color:#D1C3A4"/>
			<stop  offset="1" style="stop-color:#EFDCBB"/>
		</linearGradient>
		<rect x="1248.4" y="1262.5" fill="url(#SVGID_41_)" width="1162.1" height="29.1"/>
		<linearGradient id="SVGID_42_" gradientUnits="userSpaceOnUse" x1="1829.4679" y1="1376.8276" x2="1829.4679" y2="1289.6005">
			<stop  offset="0" style="stop-color:#D1C3A4"/>
			<stop  offset="1" style="stop-color:#EFDCBB"/>
		</linearGradient>
		<rect x="1205.5" y="1291.6" fill="url(#SVGID_42_)" width="1247.9" height="29.1"/>
		<linearGradient id="SVGID_43_" gradientUnits="userSpaceOnUse" x1="1829.4679" y1="1375.3057" x2="1829.4679" y2="1320.47">
			<stop  offset="0" style="stop-color:#D1C3A4"/>
			<stop  offset="1" style="stop-color:#EFDCBB"/>
		</linearGradient>
		<rect x="1159.1" y="1320.7" fill="url(#SVGID_43_)" width="1340.8" height="29.1"/>
		<linearGradient id="SVGID_44_" gradientUnits="userSpaceOnUse" x1="1829.4678" y1="1410.309" x2="1829.4678" y2="1353.1116">
			<stop  offset="0" style="stop-color:#D1C3A4"/>
			<stop  offset="1" style="stop-color:#EFDCBB"/>
		</linearGradient>
		<rect x="1112.9" y="1349.9" fill="url(#SVGID_44_)" width="1433.1" height="29.1"/>
	</g>
	<linearGradient id="SVGID_45_" gradientUnits="userSpaceOnUse" x1="2368.9211" y1="359.5648" x2="2685.1147" y2="609.0385">
		<stop  offset="0" style="stop-color:#6B9E34"/>
		<stop  offset="0.1351" style="stop-color:#61933C"/>
		<stop  offset="1" style="stop-color:#1F4A6E"/>
	</linearGradient>
	<path fill="url(#SVGID_45_)" d="M2377.7,425c0,0,99.3-14.6,135.5,28.9c36.1,43.5,83.4-0.8,83.4-0.8S2493.2,626.3,2377.7,425z"/>
	<path fill="#5C8232" d="M127.8,1379c0,0-15.3-76.1,55.3-63.9c0,0,22.3-88.2,102.3-55.3s49.4,78.3,49.4,78.3s62.3-34.6,109.3,0
		c0,0,42.3-84.9,101.1-36.9c0,0,77.6-41.5,89.4,26.2c0,0,61.1-32.5,72.9,24.7c0,0,21.2,10.2,21.2,27H127.8z"/>
	<path fill="#5C8232" d="M2164,1379c0,0-10.7-53.3,38.7-44.8c0,0,15.7-61.8,71.7-38.8c56,23.1,34.6,54.9,34.6,54.9s43.7-24.2,76.6,0
		c0,0,29.7-59.5,70.9-25.9c0,0,54.4-29.1,62.6,18.3c0,0,42.8-22.7,51.1,17.3c0,0,14.8,7.1,14.8,18.9H2164z"/>
	<path fill="#5C8232" d="M2077.9,1379c0,0-6.7-33.2,24.1-27.9c0,0,9.7-38.5,44.6-24.1s21.5,34.2,21.5,34.2s27.2-15.1,47.7,0
		c0,0,18.5-37.1,44.1-16.1c0,0,33.9-18.1,39,11.4c0,0,26.7-14.2,31.8,10.8c0,0,9.2,4.4,9.2,11.8H2077.9z"/>
	<path fill="#5C8232" d="M2372.6,1379c0,0-13.9-69.1,50.1-58c0,0,20.3-80,92.8-50.2c72.5,29.9,44.8,71,44.8,71s56.5-31.4,99.2,0
		c0,0,38.4-77.1,91.7-33.5c0,0,70.4-37.7,81.1,23.7c0,0,55.5-29.4,66.1,22.4c0,0,19.2,9.2,19.2,24.5H2372.6z"/>
	<path fill="#5C8232" d="M2684.7,1379c0,0-10.7-53.3,38.7-44.8c0,0,15.7-61.8,71.7-38.8c56,23.1,34.6,54.9,34.6,54.9
		s43.7-24.2,76.6,0c0,0,29.7-59.5,70.9-25.9c0,0,54.4-29.1,62.6,18.3c0,0,42.8-22.7,51.1,17.3c0,0,14.8,7.1,14.8,18.9H2684.7z"/>
	<path fill="#5C8232" d="M2808.7,1379c0,0-10.7-53.3,38.7-44.8c0,0,15.7-61.8,71.7-38.8c56,23.1,34.6,54.9,34.6,54.9
		s43.7-24.2,76.6,0c0,0,29.7-59.5,70.9-25.9c0,0,54.4-29.1,62.6,18.3c0,0,42.8-22.7,51.1,17.3c0,0,14.8,7.1,14.8,18.9H2808.7z"/>
	<path fill="#5C8232" d="M3144,1379c0,0-5.4-26.7,19.4-22.4c0,0,7.8-30.9,35.8-19.4c28,11.5,17.3,27.4,17.3,27.4s21.8-12.1,38.3,0
		c0,0,14.8-29.8,35.4-12.9c0,0,27.2-14.5,31.3,9.2c0,0,21.4-11.4,25.5,8.6c0,0,7.4,3.6,7.4,9.5H3144z"/>
	<linearGradient id="SVGID_46_" gradientUnits="userSpaceOnUse" x1="2901.6089" y1="1651.5004" x2="2901.6089" y2="40.6053">
		<stop  offset="0" style="stop-color:#426120"/>
		<stop  offset="1" style="stop-color:#1F4A6E"/>
	</linearGradient>
	<rect x="2866.4" y="138.2" fill="url(#SVGID_46_)" width="70.5" height="1701.5"/>
	<linearGradient id="SVGID_47_" gradientUnits="userSpaceOnUse" x1="3120.2373" y1="1629.486" x2="3120.2373" y2="166.5176">
		<stop  offset="0" style="stop-color:#426120"/>
		<stop  offset="1" style="stop-color:#1F4A6E"/>
	</linearGradient>
	<rect x="3009.5" y="138.2" fill="url(#SVGID_47_)" width="221.5" height="1701.5"/>
	<rect x="3009.5" y="138.2" fill="#A7BD48" width="61.7" height="1701.5"/>
	<path fill="#A7BD48" d="M3009.5,1236.9c0,0-16.2-100.1-79.8-136.5c-63.7-36.4-103.1-133.4-139.5-148.6v-9.1
		c0,0,44.2,27.7,78.9,85.9c27.4,46,79.9,49.5,107.2,74.8c27.3,25.3,55.6,80.9,55.6,80.9L3009.5,1236.9z"/>
	<path fill="#385A36" d="M3480.5,748.1v14.2c-52.4,27.1-114.6,155-170.7,180.4c-64.7,29.3-99,147.1-99,147.1l-10.4-30.3
		c0,0,42.5-119.1,90.2-129.7c47.8-10.6,109.2-89.4,145.6-140.3C3452.9,766.3,3468.5,754.3,3480.5,748.1z"/>
	<path fill="#A7BD48" d="M3095.5,923.5c0,0-2,808.8,0,835C3095.5,1758.6,3121.8,1061,3095.5,923.5z"/>
	<path fill="#325743" d="M2895.3,694.8c0,0-20.5-88.7-65.4-96.1c-27.7-4.5-63.9-3.2-72-9.3c-8.1-6.1-35.4-59.4-35.4-59.4
		s34.4,57.6,57.6,57.6s85.9,7.6,96,34.6c10.1,27,33.4,44.2,33.4,44.2L2895.3,694.8z"/>
	<linearGradient id="SVGID_48_" gradientUnits="userSpaceOnUse" x1="2967.7078" y1="1464.6848" x2="3437.9805" y2="2292.3628">
		<stop  offset="1.036270e-002" style="stop-color:#B0BD24"/>
		<stop  offset="1" style="stop-color:#1F4A6E"/>
	</linearGradient>
	<path fill="url(#SVGID_48_)" d="M3211.7,1591.6c0,0,0.6,38.4-43.2,62.4s-87,16-75.5,57.6c11.6,41.6-82.8,22.4-102.2,65.6
		s31.6,62.4,31.6,62.4h270.2c0,0,49.3-54.4,0-105.6S3211.7,1591.6,3211.7,1591.6z"/>
	<linearGradient id="SVGID_49_" gradientUnits="userSpaceOnUse" x1="3281.0466" y1="1620.6863" x2="3556.155" y2="2274.3635">
		<stop  offset="1.036270e-002" style="stop-color:#B0BD24"/>
		<stop  offset="1" style="stop-color:#1F4A6E"/>
	</linearGradient>
	<path fill="url(#SVGID_49_)" d="M3395.5,1663.6c0,0,0.4,27.3-26.9,44.3s-54.2,11.4-47,40.9c7.2,29.5-51.5,15.9-63.6,46.6
		c-12.1,30.7,19.7,44.3,19.7,44.3h168.2c0,0,30.7-38.6,0-75C3415.2,1728.3,3395.5,1663.6,3395.5,1663.6z"/>
	<linearGradient id="SVGID_50_" gradientUnits="userSpaceOnUse" x1="2552.0854" y1="739.5521" x2="3281.3872" y2="-480.9119">
		<stop  offset="0" style="stop-color:#6B9E34"/>
		<stop  offset="0.1351" style="stop-color:#61933C"/>
		<stop  offset="1" style="stop-color:#1F4A6E"/>
	</linearGradient>
	<path fill="url(#SVGID_50_)" d="M2290.8,0c3.3,150.8,154,165.6,165.6,182.9c0,0-88.8,50.9,7.9,116.3c96.6,65.3,216.2-13,244,66.6
		c27.7,79.7,195,95.4,257.7,17c16.4-20.5,15.4-38.1,6.1-53.3c29,4.9,57.8,8.2,83.5,9.6c95.8,5.3,91.9-51,113.1-86.9
		c17.4-4.8,29.7-12.9,33.8-26c8.3-2.2,18.4-3.1,30.7-2.4c113.7,6.2-96,154.5,105.8,179.3c133.5,16.4,126.4-15.2,141.6-48.1V0H2290.8
		z"/>
	<g>
		<g>
			<rect x="603.6" y="1338.6" fill="#8A6F4E" width="742.5" height="28.6"/>
		</g>
		<g>
			<rect x="603.6" y="1381" fill="#8A6F4E" width="742.5" height="28.6"/>
		</g>
		<g>
			<rect x="1343.6" y="1542.3" fill="#8A6F4E" width="22.9" height="191.3"/>
		</g>
		<g>
			<rect x="1241" y="1542.3" fill="#8A6F4E" width="22.9" height="191.3"/>
		</g>
		<g>
			<rect x="603.6" y="1513.7" fill="#8A6F4E" width="793" height="28.6"/>
		</g>
		<g>
			<rect x="603.6" y="1467.3" fill="#8A6F4E" width="742.5" height="28.6"/>
		</g>
		<g>
			<rect x="603.6" y="1424.1" fill="#8A6F4E" width="742.5" height="28.6"/>
		</g>
		<g>
			<rect x="621.9" y="1542.3" fill="#8A6F4E" width="22.9" height="191.3"/>
		</g>
		<g>
			<rect x="729.1" y="1542.3" fill="#8A6F4E" width="22.9" height="191.3"/>
		</g>
	</g>
	<g>
		<path fill="#F7F7F7" d="M576.1,691.8c-8.2,0-16,1.2-23.2,3.4c-9.5-23-33.1-39.3-60.6-39.3c-30.7,0-56.4,20.1-63.3,47.3
			c-5.3-2-11.1-3.1-17.1-3.1c-25.5,0-46.2,19.7-46.2,43.9h67.6h24.8H511h40.3h89.9C641.2,715.2,612.1,691.8,576.1,691.8z"/>
	</g>
	<g>
		<path fill="#F7F7F7" d="M852.6,381.5c-10.5,0-20.6,1.6-29.9,4.4c-12.2-29.7-42.7-50.7-78.3-50.7c-39.6,0-72.8,26-81.7,61
			c-6.8-2.6-14.3-4-22.1-4c-32.9,0-59.6,25.4-59.6,56.7h87.3h32h68.3h52h116.1C936.6,411.6,899,381.5,852.6,381.5z"/>
	</g>
	<path fill="#F7F7F7" d="M2449.5,452.3h-327c0-23.5,19-42.5,42.5-42.5c9.7,0,18.5,3.3,25.7,8.7c11.4-18.7,32-31.2,55.5-31.2
		c24.9,0,46.6,14.1,57.5,34.7c5.3-3.2,11.5-5.1,18.1-5.1c11.9,0,22.5,5.9,28.8,15c7.9-18.4,26.1-31.3,47.4-31.3
		C2426.4,400.8,2449.5,423.9,2449.5,452.3z"/>
	<g>
		<g>
			<path fill="#404670" d="M1264.3,1619.7c-13.9,0-25.3-10.4-25.3-23.2c0-12.8,11.3-23.2,25.3-23.2s25.3,10.4,25.3,23.2
				C1289.6,1609.3,1278.3,1619.7,1264.3,1619.7z M1264.3,1578.3c-10.7,0-19.4,8.1-19.4,18.1c0,10,8.7,18.1,19.4,18.1
				c10.7,0,19.4-8.1,19.4-18.1C1283.7,1586.5,1275,1578.3,1264.3,1578.3z"/>
		</g>
		<rect x="1201.2" y="1678.4" fill="#303554" width="126.3" height="63"/>
		<path fill="#404670" d="M1207,1753.2c0,0-0.5-14.1,0-90.1c0.6-78.9,58-77.7,58-77.7s57.4-1.2,58,77.7c0.5,76,0,90.1,0,90.1H1207z"
			/>
		<rect x="1220.1" y="1678.4" fill="#51598F" width="89.8" height="63"/>
		<rect x="1220.1" y="1678.4" fill="#303554" width="89.8" height="17.5"/>
	</g>
	
		<linearGradient id="SVGID_51_" gradientUnits="userSpaceOnUse" x1="-4923.6064" y1="2855.7668" x2="-4696.8838" y2="3034.6489" gradientTransform="matrix(0.6418 -0.7669 0.7669 0.6418 2962.3948 -4938.0747)">
		<stop  offset="0" style="stop-color:#6B9E34"/>
		<stop  offset="0.1351" style="stop-color:#61933C"/>
		<stop  offset="1" style="stop-color:#1F4A6E"/>
	</linearGradient>
	<path fill="url(#SVGID_51_)" d="M2032.5,695.9c0,0,37.7-61.3,78.2-61.2c40.5,0.1,37.9-46.2,37.9-46.2S2196.4,725.1,2032.5,695.9z"
		/>
	
		<linearGradient id="SVGID_52_" gradientUnits="userSpaceOnUse" x1="4476.0566" y1="-4825.6162" x2="4638.7285" y2="-4697.2695" gradientTransform="matrix(0.7666 0.6421 -0.6421 0.7666 -4554.2695 1053.6335)">
		<stop  offset="0" style="stop-color:#6B9E34"/>
		<stop  offset="0.1351" style="stop-color:#61933C"/>
		<stop  offset="1" style="stop-color:#1F4A6E"/>
	</linearGradient>
	<path fill="url(#SVGID_52_)" d="M1957.5,257.1c0,0,44,27.1,43.9,56.1c-0.1,29.1,33.2,27.2,33.2,27.2S1936.5,374.6,1957.5,257.1z"/>
	<linearGradient id="SVGID_53_" gradientUnits="userSpaceOnUse" x1="3282.9854" y1="1245.5101" x2="3397.8687" y2="1245.5101">
		<stop  offset="0" style="stop-color:#6B9E34"/>
		<stop  offset="0.1351" style="stop-color:#61933C"/>
		<stop  offset="1" style="stop-color:#1F4A6E"/>
	</linearGradient>
	<path fill="url(#SVGID_53_)" d="M3283,1298.5c0,0,33.5-60.6,72.4-62.2c38.9-1.7,34.4-46.1,34.4-46.1S3441.6,1319.3,3283,1298.5z"/>
	<g>
		<g>
			<g>
				<g>
					<path fill="#996239" d="M3015.8,1769.7c-1.1,7.6-46.7,39.6-55.7,45.9c-7.2,5.1-13.5,7.5-24.4,11.6c0,0,0,0,0,0
						c-24.8,6.5-180.3,52.9-180.3,52.9c-0.4-1.6-0.6-3-1.5-4.7c-5.8,2.3-11.8,3.8-15.6,5c-5.8,1.8-51.7,3.3-61.1,5.1
						c-9.4,1.8-28.2,4.7-35.8-2.5c-7.6-7.2,4.7-22.8,15.2-26.8s48.8-5.1,55.7-5.8c6.9-0.7,15.9-3.3,20.3-1.8c1.4,0.5,7.4-1.3,15.1-4
						c-0.2-2.8-0.2-4.6-0.2-4.6l40.8-11.8l-7.6-72.3c0,0,17.8-66.9,88.7-15.9c0,0,15.8,4.7,21.3,6.1c0.4,0.1,1,0.1,1.8,0.1
						c10.8-0.8,57.3-14.9,74.2-14.9c18.1,0,23.9-1.1,30.4,2.2S3016.9,1762.1,3015.8,1769.7z"/>
				</g>
			</g>
			<g>
				<g>
					<path fill="#996239" d="M2943.1,1882.9c-7.6,7.2-26.4,4.3-35.8,2.5s-55.4-3.3-61.1-5.1c-5.8-1.8-16.6-4.3-24.2-9.4
						c-0.6-0.4-2-1-4.1-1.8c0,0,0,0,0,0l-11.5,8.3l-159.7-50.8c-9.6-2.6-17.2-6.6-22.2-11c-8.3-7.2-54.6-38.3-55.7-45.9
						c-1.1-7.6,12.3-32.9,18.8-36.2s12.3-2.2,30.4-2.2c18.1,0,70.5,16.3,76,14.8c2.5-0.7,7.6-3.3,12.4-5.9
						c5.8-3.2,11.2-6.4,11.2-6.4c77.7-34.7,86.3,22.1,86.3,22.1l-4.6,70.1c0,0,6.5,3.2,14.9,7.2l38.5,10.9l-5,3.6
						c2.2,0.7,3.7,1,4.3,0.8c4.3-1.4,13.4,1.1,20.3,1.8c6.9,0.7,45.2,1.8,55.7,5.8S2950.7,1875.7,2943.1,1882.9z"/>
				</g>
			</g>
			<g>
				<g>
					<path fill="#5478B3" d="M2706.3,1740.3c5.4,0.4,41.6,21.3,50.2,26.4c-13.1-6.8-62.6-20.5-62.6-20.5
						C2696.3,1745.5,2701.4,1742.9,2706.3,1740.3z"/>
				</g>
			</g>
			<g>
				<g>
					<path fill="#D88A51" d="M2892.5,1746.2c0,0-62.4,15.1-73.8,21.5c0.5-0.4,32.9-25,49.9-28.2c0,0,16.7,5.3,22.1,6.7
						C2891,1746.3,2891.6,1746.3,2892.5,1746.2C2892.5,1746.2,2892.5,1746.2,2892.5,1746.2z"/>
				</g>
			</g>
			<g>
				<g>
					<path fill="#EEA886" d="M2943.1,1882.9c-7.6,7.2-26.4,4.3-35.8,2.5s-55.4-3.3-61.1-5.1c-1.7-0.5-3.7-1.1-6-1.8c0,0,0,0,0,0
						c-5.7-1.7-12.8-4-18.2-7.6c-0.6-0.4-2-1-4.1-1.8l28.9-20.9l0.8-0.6c2.2,0.7,3.7,1,4.3,0.8c4.3-1.4,13.4,1.1,20.3,1.8
						c6.9,0.7,45.2,1.8,55.7,5.8S2950.7,1875.7,2943.1,1882.9z"/>
				</g>
			</g>
			<g>
				<g>
					<path fill="#C5CDDB" d="M2943.1,1882.9c-7.6,7.2-26.4,4.3-35.8,2.5s-55.4-3.3-61.1-5.1c-1.7-0.5-3.7-1.1-6-1.8c0,0,0,0,0,0
						c0,0,0,0,0,0s12.6-12.5,6.7-30.3l0.8-0.6c2.2,0.7,3.7,1,4.3,0.8c4.3-1.4,13.4,1.1,20.3,1.8c6.9,0.7,45.2,1.8,55.7,5.8
						S2950.7,1875.7,2943.1,1882.9z"/>
				</g>
			</g>
			<g>
				<g>
					<path fill="#E55353" d="M2722.1,1756.3c0.1,0.2,0.1,0.3-0.1,0.4C2721.4,1757.2,2721.5,1757,2722.1,1756.3z"/>
				</g>
			</g>
			<g>
				<g>
					<path fill="#E55353" d="M2931.2,1671.7c-0.6-1.2-33.6-53.1-42.5-76.7c-8.9-23.6-30.4-34.5-40.5-37.9
						c-3.6-1.2-10.1-3.3-16.8-5.5c-12.2-4-25.6-8.2-25.6-8.2h-42.2c0,0-14.6,4.9-30.1,10.3c0,0,0,0,0,0c-14.3,5-29.4,10.5-34.5,13
						c-10.6,5.3-28.5,43.2-32.1,47.5c-3.6,4.3-31.4,55.9-35.5,75.7c-3.1,15.4,88.2,60.5,90.7,66.3c2.9-3.2,16.2-16,16.2-16
						s-4.3-2.7-10.3-6.6c24.5,1.1,84.3-1,92.9-0.6c1.7,0.1,3.6,0,5.5-0.1c0,0,0,0,0,0c2.7,1.9,19.8,17.1,19.8,17.1
						s42.2-17.5,61.6-37.1C2935.4,1685,2934.3,1677.8,2931.2,1671.7z M2691.2,1706c-9-10.9-21.5-17.4-18.4-22.2
						c3.1-4.8,29.7-50.6,29.7-50.6s13.7,30.1,17.6,45.8c3.9,15.7,3.6,22.9,1.9,27.7c-1.5,4.4-2.6,7.3-3.9,20.4
						C2707.3,1719.6,2695.4,1710.9,2691.2,1706z M2877.9,1700.8c-3.5,4-17.6,12.9-30.2,20.3c-1-8.7-2.4-22.5-2.6-27.5
						c-0.2-7.5,2.9-28.9,6.8-37.1c3.9-8.2,6.5-30.6,6.5-30.6s32,43.4,37,48C2900.4,1678.4,2889.8,1687.2,2877.9,1700.8z"/>
				</g>
			</g>
			<g>
				<g>
					<path fill="#694327" d="M2741.1,1807.8c0,0-50.5-30.3-72.6-35c-20.9-4.5-28.5-12.3-28.5-12.3s33.2,0,55.2,15.7
						C2710.3,1786.7,2741.1,1807.8,2741.1,1807.8z"/>
				</g>
			</g>
			<g>
				<g>
					<path fill="#694327" d="M2786,1828.9c0,0,87.9-46.1,123.8-56.2c20.5-5.7,28.5-12.3,28.5-12.3s-54.3,5.3-87.4,25.2
						C2835.1,1795.1,2786,1828.9,2786,1828.9z"/>
				</g>
			</g>
			<g>
				<g>
					<path fill="#EEA886" d="M2753.9,1875.4c-5.8,2.3-11.8,3.8-15.6,5c-5.8,1.8-51.7,3.3-61.1,5.1c-9.4,1.8-28.2,4.7-35.8-2.5
						c-7.6-7.2,4.7-22.8,15.2-26.8s48.8-5.1,55.7-5.8c6.9-0.7,15.9-3.3,20.3-1.8c1.4,0.5,7.4-1.3,15.1-4
						C2747.9,1849.2,2753.9,1875.4,2753.9,1875.4z"/>
				</g>
			</g>
			<g>
				<g>
					<path fill="#996239" d="M2786,1871l86.4-25.6l-17.1-5.2C2855.3,1840.2,2786.3,1865.3,2786,1871z"/>
				</g>
			</g>
			<g>
				<g>
					<polygon fill="#694327" points="2786,1871 2826.5,1858.7 2798.4,1875 					"/>
				</g>
			</g>
			<g>
				<g>
					<path fill="#525252" d="M2758.3,1767.7c-0.1,0-0.7-0.4-1.8-1.1C2757.2,1767,2757.8,1767.4,2758.3,1767.7z"/>
				</g>
			</g>
			<g>
				<g>
					<path fill="#C5CDDB" d="M2738.3,1880.4c-5.8,1.8-51.7,3.3-61.1,5.1c-9.4,1.8-28.2,4.7-35.8-2.5c-7.6-7.2,4.7-22.8,15.2-26.8
						s48.8-5.1,55.7-5.8c6.9-0.7,15.9-3.3,20.3-1.8C2732.6,1848.6,2721,1866.3,2738.3,1880.4z"/>
				</g>
			</g>
			<g>
				<g>
					<path fill="#525252" d="M2709.8,1760.4l-13.3-75.7l172.1-4l-11.1,74.5c0,0-54.9,20.1-73.6,31.8
						C2783.9,1787.1,2736.8,1767.7,2709.8,1760.4z"/>
				</g>
			</g>
			<g>
				<g>
					<path fill="#EEA886" d="M2806.2,1543.5c0,0,0-0.1,0-0.1c-2.1-4.6-1.1-27-1.1-27s-42-10.7-40.8-2.5s-3.6,30.5-3.6,30.5
						l-21.6,7.4c0,0,23,61.7,49.4,53.7c26.4-8,36.4-56,36.4-56L2806.2,1543.5z"/>
				</g>
			</g>
			<g>
				<g>
					<path fill="#EEA886" d="M2782.8,1426c0,0,44.4-10.4,39.8,44.6c-4.7,55.9-14.8,62.4-29,63.4c-17.8,1.2-36-6.5-46.1-49.8
						C2737.8,1443.1,2755.7,1426,2782.8,1426z"/>
				</g>
			</g>
			<g>
				<g>
					<path fill="#292C47" d="M2750.7,1496c0,0-2.2-8.6,0.9-10.7c4-2.7,6.3,1.9,6.3,1.9l4.3-0.2c0,0-6.7-15.1,6.8-16.5
						c13.5-1.4,41.9-0.5,49.7-5.2c0,0,2,10.2,1.9,12.7s1.2,0.3,1.2,0.3s7.3-39.4-15.6-55.7c-22.9-16.4-51.5-3.7-57.6,10.9
						S2739.5,1462.9,2750.7,1496z"/>
				</g>
			</g>
			<g>
				<g>
					<polygon fill="#292929" points="2743.2,1466.5 2697.1,1446.3 2787.1,1397.4 2863.2,1436.3 2822.8,1457.8 					"/>
				</g>
			</g>
			<g>
				<g>
					<path fill="#525252" d="M2744.1,1470.2c0,0,43.8-13.8,78.9-7.8l-0.3-9.8c0,0-32.9-7.9-80.7,6.8L2744.1,1470.2z"/>
				</g>
			</g>
			<g>
				<g>
					<g>
						<rect x="2729.1" y="1450.7" fill="#292929" width="2.2" height="53.6"/>
					</g>
				</g>
			</g>
			<g>
				<g>
					<path fill="#292929" d="M2730.3,1503.3L2730.3,1503.3C2730.3,1503.3,2730.3,1503.3,2730.3,1503.3
						C2730.3,1503.3,2730.2,1503.3,2730.3,1503.3L2730.3,1503.3c-5.2,0.2-4.5,26.4-4.5,26.4l4.5,0l0.1,0l4.5,0
						C2734.8,1529.7,2735.4,1503.5,2730.3,1503.3z"/>
				</g>
			</g>
			<g>
				<g>
					<path fill="#E55353" d="M2760.7,1544.3c0,0,3.1,26.6,26.6,22.9c23.5-3.7,18.9-23.8,18.9-23.8s25,8,34.7,11.3
						c0,0-19.8,83.4-68.9,72.6c-49.1-10.8-33.3-75.4-33.3-75.4L2760.7,1544.3z"/>
				</g>
			</g>
			<g>
				<g>
					<path fill="#A77860" d="M2802.1,1532.2c0,0-17.2,7.7-34.2-6.2c0,0,6.4,14.4,18.6,15.3S2802.1,1532.2,2802.1,1532.2z"/>
				</g>
			</g>
			<g>
				<g>
					<path fill="#292929" d="M2811.9,1493.5c-5.9,0-10.7-5.2-10.7-11.6c0-6.4,4.8-11.6,10.7-11.6s10.7,5.2,10.7,11.6
						C2822.6,1488.3,2817.8,1493.5,2811.9,1493.5z M2811.9,1472.1c-4.9,0-8.9,4.4-8.9,9.8s4,9.8,8.9,9.8s8.9-4.4,8.9-9.8
						S2816.8,1472.1,2811.9,1472.1z"/>
				</g>
			</g>
			<g>
				<g>
					<path fill="#292929" d="M2781.5,1496.1c-5.9,0-10.7-5.2-10.7-11.6c0-6.4,4.8-11.6,10.7-11.6c5.9,0,10.7,5.2,10.7,11.6
						C2792.2,1490.9,2787.4,1496.1,2781.5,1496.1z M2781.5,1474.7c-4.9,0-8.9,4.4-8.9,9.8c0,5.4,4,9.8,8.9,9.8
						c4.9,0,8.9-4.4,8.9-9.8C2790.4,1479.1,2786.4,1474.7,2781.5,1474.7z"/>
				</g>
			</g>
			<g>
				<g>
					<path fill="#292929" d="M2791.4,1484l-0.4-1.7c7.5-1.7,11.1-1.1,11.3-1.1l-0.3,1.8C2801.9,1482.9,2798.4,1482.3,2791.4,1484z"
						/>
				</g>
			</g>
			<g>
				<g>
					
						<rect x="2748.8" y="1480.3" transform="matrix(0.96 0.2799 -0.2799 0.96 524.8582 -713.3819)" fill="#292929" width="23.3" height="1.8"/>
				</g>
			</g>
			<g>
				<g>
					<path fill="#EEA886" d="M2755,1475.9c0,0-4.4-4.4-5.7-0.5c-1.2,3.9,5.7,22.1,8,22.5C2759.7,1498.3,2760.2,1481.3,2755,1475.9z"
						/>
				</g>
			</g>
		</g>
		<g>
			<polygon fill="#3D4C52" points="2246.9,1675 2260.8,1675 2252.4,1671.6 			"/>
			<g>
				<g>
					<path fill="#EFAA88" d="M2326,1219c0,0-5,6.5-9.6,5.4c-3.9-0.9-9.5,0.8-11.2,1.3c-2.3,0.7-10.2,0.1-9.4,3.1
						c0.8,2.9,13,1.5,15.6,1.7c2.6,0.2-5.6,8.6-5.9,11.3c-0.3,2.7,14.3,15.5,19.3,9.1c5-6.4,6.1-16.5,7.2-17.4
						c1.1-0.9,3.8-4.5,3.8-4.5L2326,1219z"/>
				</g>
			</g>
			<g>
				<g>
					<path fill="#EFAA88" d="M2306.3,1240.1c0,0-13.9,20.5-13.7,22.7c0.2,2.1,1.4,2.8,2.8,1c1.4-1.9,14-19.5,14-19.5
						s-12.4,27.1-12.6,28.9c-0.1,1.1,2,2.5,2.9,1.6c0.8-0.9,14.7-27.1,14.7-27.1s-11.5,25.3-11.3,26.9c0.2,1.4,2.6,2.2,3.5,0.4
						c1-1.8,13-24.7,13-24.7s-7.2,18.9-6.2,20.1c0.6,0.7,2.4,2.1,4.1-2.9s7-16.2,7-16.2L2306.3,1240.1z"/>
				</g>
			</g>
			<path fill="#494F80" d="M2444.2,1281c0,0-3.8,8.1-9.3,19.9v0c-1.7,3.7-3.6,7.8-5.7,12.1c-13.4,28.9-31.4,67.7-33.2,72.9
				c-3,8.4,12.2,36.5,12.7,56.2c0.5,19.7,11.2,128.9,11.2,128.9l-16.8-3.8l-43.9-172.7c0,0-5.4-23.2-5.4-37.6c0-6.2,4.8-18.3,8-32.9
				c3.3-14.6,31-120.4,31-120.4C2478.4,1173,2444.2,1281,2444.2,1281z"/>
			<path fill="#EDDAD3" d="M2415.4,1569.5c0,0-6-5.4-9.1-6c-3-0.6-5.9-0.5-7.1,1c-1.3,1.4-4.9,7.1-6.9,8.9s-16.1,15.4-19.4,16.3
				c-3.3,1-17.8,0.2-17,8.6s12.5,12.1,33.5,10.2c20.9-1.9,18.4-6.8,30.1-9.4c11.7-2.5,12.5-8.4,10.5-15.5
				c-2.1-7.1-10.4-14.2-9.5-16.1C2421.3,1565.4,2415.4,1569.5,2415.4,1569.5z"/>
			<g>
				<ellipse fill="#3D4C52" cx="2411.8" cy="1587.6" rx="57.6" ry="90.2"/>
				<ellipse fill="#3D4C52" cx="2432.1" cy="1587.6" rx="57.6" ry="90.2"/>
				<ellipse fill="#7A6CFA" cx="2434.9" cy="1587.6" rx="47.4" ry="74.2"/>
				<polygon fill="#3D4C52" points="2408.8,1497.5 2432.1,1497.4 2413.7,1503.7 				"/>
				<polygon fill="#3D4C52" points="2411.8,1677.8 2432.1,1677.8 2419.8,1672.8 				"/>
				<path fill="#AEA5FA" d="M2380.3,1622.2l-25.3-1.2c0,0-24.7-81.3,34.4-119.6c59.1-38.3,93.2,19.4,98.6,41.6L2380.3,1622.2z"/>
			</g>
			<polygon fill="#3D4C52" points="2043.6,1533.2 2056.4,1533.2 2043.6,1537.5 			"/>
			<polygon fill="#3D4C52" points="2043.6,1656.8 2056.4,1656.8 2043.6,1653.4 			"/>
			<ellipse fill="#3D4C52" cx="2043.6" cy="1595" rx="39.4" ry="61.8"/>
			<ellipse fill="#CC4A4A" cx="2056.4" cy="1595" rx="39.4" ry="61.8"/>
			<polygon fill="#CC4A4A" points="2037.3,1622 2226.1,1636.9 2273.5,1615.4 2090.3,1604 			"/>
			<ellipse fill="#2F4563" cx="1975.8" cy="1185.2" rx="4.9" ry="8.2"/>
			<path fill="#EEA886" d="M1975.7,1190.7c0,0-5.4-13.7,2-18.9s19.9-2.4,23.3-1.4c11.8,3.5,24.8,0.2,26.2-1.4
				c1.4-1.6,10,10.8,10,10.8l-15.1,1.7c0,0-0.8-2.6-9.1-1.8c-8.3,0.9-5.7,12.4-10.9,12.4S1982.1,1195.9,1975.7,1190.7z"/>
			<path fill="#323657" d="M2461.2,1155.8c3.7,16.1,10.1,32.6,20.5,48.9c0,0,24.7,5.6,33.4-10.8c3.4-6.4,4-26.2,1.4-50.9
				c-3.9-38-15.2-87.7-34.8-118C2481.7,1025,2445.3,1086.3,2461.2,1155.8z"/>
			<path fill="#EDDAD3" d="M2461.2,1155.8c3.7,16.1,10.1,32.6,20.5,48.9c0,0,24.7,5.6,33.4-10.8c3.4-6.4,4-26.2,1.4-50.9
				L2461.2,1155.8z"/>
			<path fill="#E55353" d="M2336.7,1231.9c2.2-1.7,44-50,46.3-62.4c2.4-12.5,2.8-15.8,4.1-20.8c0.1-0.3,0.2-0.9,0.4-1.7
				c0.9-3.7,2.7-11.9,4.7-19.6c0.1-0.5,0.3-1.1,0.4-1.6l0-2.8c1.4-5.3-0.9-8.1-1.4-12.1c-0.1-1.2-0.1-2.6,0.2-4.1c0-0.1,0-0.1,0-0.2
				c1.6-7.1,2.7-13.3,2.6-16.7c-0.1-11.3,10.1-65.7,10.1-65.7s-19.7,6.7-25.8,17.8c-5.9,10.9-7,36.8-7.2,42.4
				c-0.2,5.5-3.6,51.6-4.3,61c-0.7,9.4-1.3,10.6-3.2,16.9c-1.9,6.4-45.1,56.7-45.2,61.7C2318.5,1224.9,2332.8,1234.9,2336.7,1231.9z
				"/>
			<path fill="#494F80" d="M2477.7,1195.2c0,0,16.9,21.9,21.4,47.9c4.6,26-2.7,113.3-2.5,126.1c0.2,12.9,12.2,44.8,9.8,69
				s-22.3,146.1-22.3,146.1l-15.7-2.9c0,0,1.9-126.5,0.4-136.6c-1.5-10.2-4.5-47.2-5.1-51.4s-37.9-114.1-37.9-132.8
				S2437.1,1164.6,2477.7,1195.2z"/>
			<g>
				<path fill="#EDDAD3" d="M2424.4,1016.1c0,0-14.8,7-19.9,8c-5.1,1-25.1,26.9-28.6,36.4c-3.5,9.5,0,23.6,7.2,40.3
					c7.2,16.6,0.4,22.2,3.7,38.8s3.3,62,2.7,71.3s90.1,32.3,109.2,15.5c0,0-12.7-44.6-23.2-67.1c-2-4.4-3.1-23.7-0.8-29.5
					c2.3-5.8,27.7-48.7,27.7-48.7s5.3-42.8-5.9-51.5c-9.7-7.5-39.4-10.9-44.1-12.5C2447.8,1015.3,2434,1014.6,2424.4,1016.1z"/>
			</g>
			<g>
				<path fill="#E55353" d="M2383.1,1100.7c7.2,16.6,0.4,22.2,3.7,38.8c3.3,16.6-2.9,78.7-3.5,88c-0.6,9.2,96.3,15.6,115.4-1.2
					c0,0-5-17.4-11.2-36c-0.8-2.3-1.6-4.6-2.4-6.9c-3.1-8.9-6.4-17.5-9.5-24.3c-2-4.4-3.1-23.7-0.8-29.5
					c2.3-5.8,27.7-48.7,27.7-48.7s5.3-42.8-5.8-51.5c-3.8-2.9-10.7-5.3-17.9-7.1c-2.7-0.7-5.5-1.3-8.2-1.8
					c-8.3-1.7-15.8-2.8-17.9-3.6c-4.7-1.6-18.5-2.4-28.1-0.9c0,0-14.8,7-19.9,8c-5.1,1-25.1,26.9-28.6,36.4
					C2372.4,1069.9,2375.9,1084.1,2383.1,1100.7z"/>
			</g>
			<g>
				<path fill="#EEA886" d="M2452.5,1017c-17.5,33.4-32.8,18-32.8,18c0.3-3.9-0.1-11.3-0.7-18.4c-0.2-2-0.3-4.1-0.5-6
					c-0.6-6.5-1.1-11.6-1.1-11.6s38.9-33.3,33.4-14.5C2445.2,1003.2,2452.5,1017,2452.5,1017z"/>
			</g>
			<path fill="#EEA886" d="M2464.3,1019.4c0,0-18.6,30.2-39.6,28.9c-29.1-1.8-13.8-26.4-13.8-26.4s7.2-4.1,9.3-4.5
				c2-0.4,32.1-0.8,32.1-0.8L2464.3,1019.4z"/>
			<path fill="#323657" d="M2423.9,1142.7c2.9,17.2,10.5,30,22.7,38.1c11.7,7.8,25.4,9.7,36.1,9.7c1.6,0,3.2,0,4.7-0.1
				c-0.8-2.3-1.6-4.6-2.4-6.9c-10,0.3-23.6-1.1-34.7-8.5c-10.5-7-17.1-18.2-19.7-33.4c-5.4-32.5,0.5-62,17.7-87.8
				c12.9-19.4,30.1-31.1,30.2-31.2c0,0-2.7-1.4-8.2-1.9c0,0,0,0,0,0c-0.7,0.5-14,8.6-27.6,29
				C2430.2,1068.4,2416.7,1099.8,2423.9,1142.7z"/>
			<g>
				<g>
					<g>
						<g>
							<g>
								<path fill="#EEA886" d="M2419.1,1164c0,0,2.7,0.9,4,0.7c0,0,2.4-0.5,4.2-0.8c0.6-0.1,1-0.2,1.4-0.2c1.3,0,4.2,0.3,7.4-0.7
									c3.2-1,15.7-8.7,15.7-8.7l-2.2-8l-1-7.7c0,0-19.6-4.9-22.7-4.3c-0.3,0.1-0.6,0.1-0.9,0.2c-2.5,0.7-4.1,2.3-5.4,2.9
									c-0.5,0.2-5,2.5-5.4,4c-0.5,2.1,0,3.7,1,4.7c0,0-0.7,4.1,0.6,6.5c0,0-0.8,3.7,1.7,6.3
									C2417.5,1158.9,2417.1,1162.8,2419.1,1164z"/>
							</g>
						</g>
					</g>
				</g>
			</g>
			<g>
				<path fill="#E55353" d="M2475.7,1025c0,0,19.4-3.3,30,13.9c12.1,19.7,11.9,28.8,13.8,38.8c1.8,9.4,7.6,24.5,8.3,27.2
					c0.7,2.6,14.8,29.6,9,41c-5.9,11.5-86.1,12.8-86.8,15.2c-0.4,1.5-4.2-24-4.2-24s27.1-4.1,35.5-4.8c10-0.9,19.2-6.6,17.9-11.5
					c-2.9-10.8-9.6-25.9-12.3-31S2460.3,1032.4,2475.7,1025z"/>
			</g>
			<path fill="#993737" d="M2375.8,1079.3c0,0,4.2,15.2,7.7,22.7s2.9,16.8,2.6,22.4c-0.3,5.6-0.1,12.3,1.7,21.7c0,0-0.3,8-1.8,7.9
				C2385.9,1154.1,2378.6,1133.9,2375.8,1079.3z"/>
			<g>
				<path fill="#E8734D" d="M2126.5,1090.9c0,0-2.7,13.8-7,29.8c-0.4,1.5-0.8,3-1.3,4.5c0,0,0,0,0,0c-0.6,2-1.2,4.1-1.8,6.1
					c-0.8,2.4-1.5,4.9-2.4,7.3c-4.6,13.3-10.1,25.2-16.1,29c-12.9,8.2-89,16.4-89,16.4l-3.1-13.7c0,0,27.3-10.9,44.4-15.1
					c10.5-2.6,23.8-8.5,25-10c1.2-1.5,16.1-53.1,16.6-58.3c0.6-5.2,3.8-26.1,8.9-37.2c5-11.1,13.7-12.9,13.7-12.9
					C2143.3,1044.3,2126.5,1090.9,2126.5,1090.9z"/>
			</g>
			<g>
				<path fill="#202338" d="M2083,1587.3c0,0-11.6,12.1-23.3,14.7s-19.9,5.8-20,12.7c-0.1,7,33.8,11.6,47.2,4.5
					c20-10.5,22.1-7.3,24.3-12.6c2.2-5.2-2.7-19.2-2.5-20.9C2108.9,1583.8,2083,1587.3,2083,1587.3z"/>
			</g>
			<g>
				<path fill="#2F6B8C" d="M2084.3,1581.5c0,0-1.5,5.7-1.3,5.8c0.2,0.1,26.4,3.1,25.6-1.5c-0.6-3.7-1.6-7.7-1.6-7.7L2084.3,1581.5z
					"/>
			</g>
			<g>
				<path fill="#202338" d="M2232.5,1590.5c0,0-8.5,11.8-19.9,14.5c-11.2,2.7-18.5,7.8-19,14.6c-0.5,6.8,26.4,15.6,45.4,3.7
					c12.5-7.8,17.1-7.4,19.6-12.3c2.5-5-1.3-18.9-1.1-20.5C2257.9,1588.5,2232.5,1590.5,2232.5,1590.5z"/>
			</g>
			<g>
				<path fill="#292C47" d="M2110.8,1240.1c0,0-12.1,88.2-17.1,118c-5.8,34.8-7.8,63.6-9.4,81.7c-2,22.7-4.7,138.8-6.2,145.4
					s35.4,3.2,35.4,3.2s19.3-151.3,25.3-175.5c5.6-22.5,22.1-119.7,27.2-113.5c5.1,6.1,27.1,117,30.9,134.7
					c3.8,17.7,22.6,156.3,22.6,156.3s34.3,4.8,41.3-0.8c0,0-12.8-122.8-15.2-156.1c-0.9-12.7,1-152.4-20.5-208.5
					C2213.8,1195.4,2110.8,1240.1,2110.8,1240.1z"/>
			</g>
			<path fill="#E8734D" d="M2146.4,1028.7c0,0-32.1,6.6-35.9,10c-4.1,3.6-11.4,38.8-11.9,48.6c-0.4,9.8,3.9,50.7,8,66
				s3.4,90.3,0.8,111.4c0,0,46.8,21.2,127.2,1.9c0,0-9.6-70.8-7-91.6c3.3-26.8,11.1-88.4,11.1-88.4s-5.6-42.9-11.3-47.7
				c-5.7-4.8-47.3-10.1-47.3-10.1H2146.4z"/>
			<path fill="#EEA886" d="M2159.7,929.4c0,0-38.6-14.3-36.2,37c2.4,51.3,11.5,56.6,36.9,49.4c25.4-7.2,27.5-39.6,30.9-55.2
				C2194.5,945.1,2172.3,931.6,2159.7,929.4z"/>
			<path fill="#EEA886" d="M2141.3,1035.7c0,0,8.5,6.3,38.6-7c0,0-1.4-21.7,4.5-41c5.9-19.3-40.5,25.7-40.5,25.7
				c0.5,0.3,0.6,2.3,0.3,5c-0.2,2.3-0.7,5.1-1.5,8C2141.2,1032.8,2141.3,1030,2141.3,1035.7z"/>
			<path fill="#252E3B" d="M2185.8,986.1c0,0,0.1-13.7-5.6-15c-5.7-1.3-8.6,6.7-8.6,6.7l-4.6-0.2c0,0,4.1-13.9-1.3-17.1
				c-5.4-3.2-38-0.4-42-5.1c-4.1-4.7,1.8-32.5,10.7-35.2c8.9-2.7,33.1-8.3,48.5,5.4c0,0,13.4,0.3,13.9,11.2
				C2197.3,947.7,2190.4,978.7,2185.8,986.1z"/>
			<path fill="#A77860" d="M2142.8,1026.3c29.9-5,34.4-22.1,34.5-22.3c-11.6,15-33,14.4-33,14.4
				C2144.1,1020.6,2143.6,1023.5,2142.8,1026.3z"/>
			<path fill="#EEA886" d="M2173.8,965.3c1.7-4.5,11.3-4,10.4,3.2c-1,7.2-8.9,18.2-12.1,16.1
				C2168.8,982.6,2171.4,971.6,2173.8,965.3z"/>
			<path fill="#E8734D" d="M2209.2,1036.9c0,0-20.1,5.5-9,42.5c8.7,28.9,9.8,35.1,9.8,35.1l46.4-11.6c0,0-13.6-63.5-35.8-66.9
				C2220.5,1035.9,2213.5,1034.9,2209.2,1036.9z"/>
			<rect x="2110.8" y="1089.2" fill="#D66A47" width="19.7" height="30.1"/>
			<path fill="#E8734D" d="M2142.6,1027.3c0,0,21,1.2,37.2-4.2l0.7,7.5c0,0-23.7,10.8-41.1,6.9L2142.6,1027.3z"/>
			<path fill="#B3583B" d="M2217.9,1112.5c0,0,2.9,19.1,4.6,31.6l0,0l-43.8,25.3c0,0,52.5-14.1,54-21.4c0,0,0,0,0,0
				C2235.8,1141.5,2235.1,1130.2,2217.9,1112.5z"/>
			<polygon fill="#E55353" points="2037.3,1622 2037.3,1629.5 2226.1,1645.6 2226.1,1636.9 			"/>
			
				<rect x="2001.3" y="1185" transform="matrix(0.998 6.308939e-002 -6.308939e-002 0.998 79.2715 -128.5984)" fill="#2F4563" width="149.3" height="12"/>
			<path fill="#EEA886" d="M2105.6,1200.3c0,0-5.4-13.7,2-18.9c7.3-5.1,19.9-2.4,23.3-1.4c11.8,3.5,24.8,0.2,26.2-1.4
				c1.4-1.6,10,13.4,10,13.4l-16.8,6.9c0,0,0.9-10.3-7.4-9.4c-8.3,0.9-5.7,12.4-10.9,12.4C2126.7,1201.8,2112,1205.4,2105.6,1200.3z
				"/>
			<ellipse fill="#2F4563" cx="2144.6" cy="1196.8" rx="6.5" ry="8.8"/>
			<path fill="#E8734D" d="M2206.8,1039.3c-4.2,1.6-5.8,9.1-4.1,30.8s9.4,31.6,12.2,36.6c2.8,5,18.5,35.9,15.7,40
				s-31.4,14.4-33.8,15.5c-3.5,1.6-43.9,16.9-43.9,16.9l9.4,23.8c0,0,80.4-25,88.8-28.9c6.4-2.9,21.4-15.3,15.9-32.7
				c-5.6-17.7-15.7-59.3-17.5-62.5C2247.7,1075.5,2234.6,1028.6,2206.8,1039.3z"/>
			<ellipse fill="#2F4563" cx="2000.6" cy="1185.2" rx="4.9" ry="8.2"/>
			<g>
				<polygon fill="#E55353" points="2137.1,1635 2047.2,1195.1 2059.3,1195.9 2148.6,1632.6 				"/>
			</g>
			<ellipse fill="#3D4C52" cx="2246.9" cy="1613.2" rx="39.4" ry="61.8"/>
			<ellipse fill="#3D4C52" cx="2260.8" cy="1613.2" rx="39.4" ry="61.8"/>
			<ellipse fill="#E55353" cx="2262.8" cy="1613.2" rx="32.4" ry="50.8"/>
			<polygon fill="#3D4C52" points="2244.9,1551.5 2260.8,1551.5 2248.2,1555.7 			"/>
			<path fill="#E55353" d="M2037.3,1622c0,0-3.4,3,0,7.5V1622z"/>
			<polygon fill="#AEA5FA" points="2432.1,1621 2482.3,1622.2 2482.3,1630 2432.1,1627.9 			"/>
			<polygon fill="#DBD7FA" points="2482.3,1622.2 2502.6,1603.2 2502.6,1608.5 2482.3,1630 			"/>
			<polygon fill="#DBD7FA" points="2432.1,1621 2456.1,1602.1 2502.6,1603.2 2482.3,1622.2 			"/>
			<path fill="#EDDAD3" d="M2480.9,1583.1c0,0-6.7-3-11.1-2.9c-4.5,0.2-4,2.9-5.1,4.5c-1.1,1.7-11.6,17.6-14.5,20.4
				c-2.9,2.9-13,5.9-11.6,13c1.4,7.2,14.3,10,30.2,8c15.9-2.1,23.7-16.9,26.3-20.2c2.5-3.3-6-24.8-8.6-26.3
				C2483.9,1578.1,2480.9,1583.1,2480.9,1583.1z"/>
			<path fill="#AEA5FA" d="M2432.1,1627.9c0,0-3.2-2.9,0-7V1627.9z"/>
			<g>
				<path fill="#EEA886" d="M2436.7,917.4c-8.8-2.3-40.9-7.3-45.1,33.6c-4.2,40.8,20.3,67.7,40.1,58.5c19.8-9.2,30.3-38.1,29.8-59.4
					C2461,928.8,2447.8,920.4,2436.7,917.4z"/>
			</g>
			<g>
				<path fill="#252E3B" d="M2391.6,951c0,0-4.3-34.3,29.9-38.2c34.2-3.9,45.6,23.6,44.4,44.3c-1.2,20.8-14.5,32.7-14.5,32.7
					s-0.1-16.7-7.1-20.5c-7-3.8-34.3-10.3-47.5-29.4C2396.8,939.9,2391.9,946.7,2391.6,951z"/>
			</g>
			<g>
				
					<ellipse transform="matrix(-0.9884 -0.1522 0.1522 -0.9884 4753.9165 2278.2996)" fill="#252E3B" cx="2464.1" cy="957.2" rx="22.9" ry="26.2"/>
			</g>
			<g>
				<path fill="#EEA886" d="M2442.8,963.5c1-3.1,4.9-4.3,7.3-2.7c2.4,1.5,4.2,6.6,1.1,13.6C2448.1,981.3,2435.6,987,2442.8,963.5z"
					/>
			</g>
			<path fill="#A77860" d="M2445.1,998.9c0,0-5.7,21.1-26.2,17.7c-0.2-2-0.3-4.1-0.5-6C2418.5,1010.6,2430.3,1015.8,2445.1,998.9z"
				/>
			<path fill="#313557" d="M2435,1300.9L2435,1300.9c-1.7,3.7-3.6,7.8-5.7,12.1l-1.8-40.6L2435,1300.9z"/>
		</g>
		<g>
			<g>
				<path fill="#223247" d="M694.2,1146.2c0,0-8.5-18.7-25.8-10.5s-14.4,32.9-8,43.4c6.4,10.5,29.3,25.9,21.8,44.8
					c-7.4,18.8-16.9,33.4-16.9,33.4s46.2-2.1,51.4-26.6C722,1206.1,694.2,1146.2,694.2,1146.2z"/>
			</g>
			<path fill="#F08D29" d="M786.5,1367.6c-1.4-6.8-2.5-6.6-3.3-16.5c-0.8-9.9-1.8-57.1-2-62.9c-0.2-5.8-1.3-33.2-7.6-44.6
				c-6.4-11.7-27.2-18.8-27.2-18.8s10.7,57.3,10.6,69.2c0,3.6,1.1,10.1,2.8,17.6c0,0.1,0,0.1,0,0.2c0.3,1.7,0.4,3.1,0.2,4.4
				c-0.5,4.3-3,7.1-1.5,12.8l0,3c0.1,0.6,0.3,1.1,0.4,1.7c2.1,8.1,4.1,16.8,5,20.6c0.2,0.8,0.3,1.4,0.4,1.8
				c1.4,5.2-0.3,2.5,2.2,15.6C766.6,1371.6,789.2,1380.8,786.5,1367.6z"/>
			<path fill="#8E4F3A" d="M669,1405c0,0-17.8,23.1-22.6,50.5c-4.8,27.4,2.8,119.4,2.6,132.9c-0.2,13.5-12.8,47.2-10.3,72.8
				c2.5,25.5,23.5,154,23.5,154l16.5-3c0,0-2-133.3-0.4-144c1.6-10.7,4.7-49.7,5.4-54.2c0.6-4.4,40-120.2,40-140
				C723.8,1454.2,711.8,1372.7,669,1405z"/>
			<path fill="#8E4F3A" d="M758.2,1414c0,0,29.2,111.4,32.7,126.8c3.5,15.4,8.5,28.2,8.5,34.7c0,15.2,5.9,44.5,5.9,44.5l31.8,179.6
				h-18.2c0,0-45.1-117.4-50.2-144c-3.9-20.5-4.6-46.2-7.8-55c-3.2-8.8-56.6-105.1-56.6-105.1S668.3,1381.6,758.2,1414z"/>
			<path fill="#292C47" d="M799.4,1575.5c0,0-67.5,29-168,29c0,0,4.4-131,19-163.8c14.6-32.8,110.2-18,110.2-18
				S799.4,1548.1,799.4,1575.5z"/>
			<g>
				<path fill="#EDDAD3" d="M725.2,1216.2c0,0,15.6,7.4,21,8.4c5.4,1.1,26.4,28.4,30.1,38.3c3.7,10,0,24.9-7.6,42.4
					c-7.6,17.5-0.4,23.4-3.9,40.9c-3.5,17.5-3.5,65.3-2.8,75.1c0.6,9.7-95,34.1-115.1,16.3c0,0,13.4-47,24.4-70.8
					c2.1-4.6,3.2-25,0.8-31.1c-2.4-6.1-29.2-51.3-29.2-51.3s-5.5-45.1,6.2-54.2c10.2-7.9,41.5-11.5,46.5-13.2
					S715,1214.7,725.2,1216.2z"/>
			</g>
			<g>
				<path fill="#F08D29" d="M768.7,1305.4c-7.6,17.5-0.4,23.4-3.9,40.9c-3.5,17.5-3.5,65.3-2.8,75.1c0.7,9.7-95,34.1-115.1,16.3
					c0,0,5.2-18.3,11.8-37.9c0.8-2.4,1.7-4.9,2.5-7.3c3.3-9.3,6.8-18.5,10-25.6c2.1-4.6,3.2-25,0.8-31.1
					c-0.9-2.3-5.5-10.5-10.7-19.7c-2.2-3.8-4.5-7.8-6.7-11.6c-6.2-10.7-11.8-20-11.8-20s-5.6-45.1,6.2-54.2c4-3.1,11.3-5.5,18.9-7.5
					c2.9-0.7,5.8-1.4,8.6-1.9c8.8-1.8,16.6-3,18.9-3.8c5-1.7,19.5-2.5,29.6-1c0,0,15.6,7.4,21,8.4c5.4,1.1,26.4,28.4,30.1,38.3
					C780,1273,776.3,1287.9,768.7,1305.4z"/>
			</g>
			<g>
				<path fill="#8E4F3A" d="M732.6,1198.3c0,0-0.4,3.6-0.9,8.6c-0.2,2.3-0.5,4.9-0.7,7.6c-0.7,8.1-1.2,17.1-0.9,21.6
					c0,0-16.2,16.2-34.6-18.9c0,0,7.8-14.5,1.9-34.3C691.6,1163.2,732.6,1198.3,732.6,1198.3z"/>
			</g>
			<path fill="#8E4F3A" d="M683.1,1219.7c0,0,19.6,31.8,41.7,30.5c30.6-1.9,14.5-27.8,14.5-27.8s-7.6-4.4-9.8-4.8
				c-2.1-0.4-33.8-0.8-33.8-0.8L683.1,1219.7z"/>
			<g>
				<path fill="#F08D29" d="M671.1,1225.7c0,0-20.4-3.5-31.6,14.6c-12.8,20.8-12.6,30.4-14.5,40.9c-1.9,9.9-8,25.9-8.7,28.6
					c-0.8,2.8-15.6,31.1-9.5,43.2c6.2,12.1,64.5,20.9,65.2,23.5c0.4,1.6,6.9-20.5,6.9-20.5s-8.6-1.8-16.8-4.6
					c-10.1-3.3-20.2-9.7-18.8-14.8c3-11.4,13.3-37.4,16.2-42.8C662.2,1288.4,687.3,1233.4,671.1,1225.7z"/>
			</g>
			<path fill="#51578C" d="M821.6,1797.7c0,0,6.4-5.7,9.5-6.3c3.2-0.7,6.2-0.5,7.5,1c1.3,1.5,5.2,7.5,7.3,9.4
				c2.1,1.8,17,16.2,20.5,17.2c3.5,1,18.7,0.2,17.9,9c-0.8,8.9-13.2,12.7-35.3,10.7c-22.1-2-19.4-7.2-31.8-9.9
				c-12.4-2.7-13.2-8.9-11-16.4c2.2-7.5,10.9-15,10-17C815.3,1793.4,821.6,1797.7,821.6,1797.7z"/>
			<path fill="#51578C" d="M665.7,1813.7c0,0,7-3.2,11.7-3c4.7,0.2,4.2,3,5.4,4.8c1.2,1.7,12.2,18.5,15.3,21.5
				c3,3,13.7,6.2,12.2,13.7s-15.1,10.6-31.9,8.4c-16.8-2.2-25-17.8-27.7-21.3c-2.7-3.5,6.4-26.2,9.1-27.7S665.7,1813.7,665.7,1813.7
				z"/>
			<path fill="#C9B9B3" d="M776.4,1282.9c0,0-4.5,16-8.1,23.9c-3.7,7.9-3,17.7-2.7,23.6c0.3,5.9,0.1,12.9-1.8,22.9
				c0,0,0.3,8.4,1.9,8.4C765.7,1361.6,773.4,1340.4,776.4,1282.9z"/>
			<g>
				<path fill="#51578C" d="M681.1,1136.9c0,0-9.6,4.8-9.1,18.8c0.5,14,14.3,24.9,20.3,22S681.1,1136.9,681.1,1136.9z"/>
			</g>
			<g>
				<path fill="#8E4F3A" d="M741.9,1115.5c0,0,18.7,12.3,17.1,38.2s-10.3,51.9-15.6,54.2c-5.3,2.3-28-6.2-32.5-8.5
					c-5.1-2.7-13.9-12.5-15.7-15.5c-1.8-3-20.6-44.2-2.4-59.8C710.8,1108.4,720.2,1107.7,741.9,1115.5z"/>
			</g>
			<g>
				<path fill="#223247" d="M726.9,1146.5c0,0,16,5.9,32.1,4.5c0,0,5.2-45.9-40.7-45.9c-45.9,0-39.2,45.9-38.3,52.1
					c0.9,6.2,9.3,28.6,19.1,33.7c0,0-3.5-23.6,3.1-27.9C708.8,1158.7,723.6,1153.6,726.9,1146.5z"/>
			</g>
			<g>
				<path fill="#8E4F3A" d="M711.6,1158c-0.9-5.2-5.9-10.1-11.6-4.8c-5.7,5.3,3.9,18.7,8,18S712.9,1165,711.6,1158z"/>
			</g>
			<g>
				<path fill="#C44747" d="M757,1323.4h-86.2c-2,0-3.6-1.6-3.6-3.6v-13.2c0-2,1.6-3.6,3.6-3.6H757V1323.4z"/>
				<path fill="#E68E35" d="M745.3,1343.8h-86.2c-2,0-3.6-1.6-3.6-3.6V1327c0-2,1.6-3.6,3.6-3.6h86.2V1343.8z"/>
				<path fill="#58A668" d="M757,1364.3h-86.2c-2,0-3.6-1.6-3.6-3.6v-13.2c0-2,1.6-3.6,3.6-3.6H757V1364.3z"/>
				<path fill="#E55353" d="M795.9,1323.4h-86.2c-2,0-3.6-1.6-3.6-3.6v-13.2c0-2,1.6-3.6,3.6-3.6h86.2V1323.4z"/>
				<path fill="#FAE6DE" d="M795.9,1321.1h-83.7c-2,0-3.6-1.6-3.6-3.6v-8.7c0-2,1.6-3.6,3.6-3.6h83.7V1321.1z"/>
				<path fill="#5084C7" d="M790.7,1302.9H674.5c-2.3,0-4.2-1.9-4.2-4.2v-12c0-2.3,1.9-4.2,4.2-4.2h116.2V1302.9z"/>
				<path fill="#5E9BEB" d="M790.7,1302.9h-48.2c-1.5,0-2.7-1.2-2.7-2.7v-15c0-1.5,1.2-2.7,2.7-2.7h48.2V1302.9z"/>
				<path fill="#FAE6DE" d="M790.7,1300.7h-46.8c-1.5,0-2.7-1.2-2.7-2.7v-10.5c0-1.5,1.2-2.7,2.7-2.7h46.8V1300.7z"/>
				<path fill="#FAA146" d="M784.2,1343.8H698c-2,0-3.6-1.6-3.6-3.6V1327c0-2,1.6-3.6,3.6-3.6h86.2V1343.8z"/>
				<path fill="#6DBD7D" d="M795.9,1364.3h-86.2c-2,0-3.6-1.6-3.6-3.6v-13.2c0-2,1.6-3.6,3.6-3.6h86.2V1364.3z"/>
				<path fill="#FAE6DE" d="M784.2,1341.7h-83.7c-2,0-3.6-1.6-3.6-3.6v-9c0-2,1.6-3.6,3.6-3.6h83.7V1341.7z"/>
				<path fill="#FAE6DE" d="M795.9,1361.9h-83.7c-2,0-3.6-1.6-3.6-3.6v-8.4c0-2,1.6-3.6,3.6-3.6h83.7V1361.9z"/>
			</g>
			<g>
				<path fill="#8E4F3A" d="M671.5,1358.1c0,0-7.7,4.1-5.5,7c2.2,2.9,5.4,6.5,5.4,6.5L671.5,1358.1z"/>
				<path fill="#8E4F3A" d="M734.7,1364.6l-36.6-3.8c3.3-1.5,8.8-4.4,7.8-6c-1.4-2.3-12.2,1.4-16.5,1.4c-3.9,0-9,2.2-9.8,2.6l-9-0.9
					l0.8,13.7c0,0,19.2,4.1,24.7,5c9,1.5,38-6.7,38.6-8.3C735.8,1365.5,734.7,1364.6,734.7,1364.6z"/>
			</g>
			<path fill="#F08D29" d="M678.9,1356c0,0-3.2,16.8-8.6,23.9c0,0-35-12.6-43.7-15.9l21.8-19.2
				C648.4,1344.8,660.5,1351.9,678.9,1356z"/>
			<path fill="#8E4F3A" d="M791.5,1357c0,0,0.6,13-7.2,15.9c-7.8,2.9-16.8,1.6-20.8-0.1c-3.9-1.7-13.9-6.7-10.8-10.5
				C762.8,1349.9,791.5,1357,791.5,1357z"/>
			<path fill="#8E4F3A" d="M789,1366.1c0,0,10.1-0.1,9.2-3.8c-0.9-3.7-8-1.7-8-1.7L789,1366.1z"/>
			<path fill="#613628" d="M731.8,1206.9c-0.2,2.3-0.5,4.9-0.7,7.6c-15.6-5.7-22-16.2-22-16.2C713,1201.6,731.8,1206.9,731.8,1206.9
				z"/>
		</g>
		<g>
			<g>
				<path fill="#323657" d="M1077.5,1191.2l13.8,112.5l10.8,87.7c0,0,56.2,14.9,54.2-27.4c-0.9-20.1-4.1-40.7-8.4-60.3
					c-11.1-50.1-29.9-93.3-38.8-104.2C1096.9,1184.4,1077.5,1191.2,1077.5,1191.2z"/>
			</g>
			<g>
				<path fill="#DBDFF0" d="M1091.4,1303.7l10.8,87.7c0,0,58.3,15.1,56.3-27.2c-0.9-20.1-5.8-40.9-10.5-60.4H1091.4z"/>
			</g>
			<g>
				<g>
					<g>
						<g>
							<path fill="#273852" d="M956,1813.6c0,0-15,10-21.8,13.7s-34,6.2-36.6,8.9c-2.6,2.7-1.1,10.8,3.4,11.4
								c4.6,0.6,37.8,1.8,48.7-1.3c10.9-3.2,31.8,0.1,36.3-1.7c4.5-1.8,0.2-26.3-1.8-31.7C982.1,1807.4,956,1813.6,956,1813.6z"/>
						</g>
					</g>
				</g>
			</g>
			<g>
				<polygon fill="#50558A" points="982,1806.2 984.2,1812.8 956,1813.6 956.9,1804.6 				"/>
			</g>
			<g>
				<g>
					<g>
						<g>
							<path fill="#273852" d="M1118.3,1799.9c0,0-11.5,13.9-17,19.4s-30.8,15.7-32.5,19c-1.7,3.3,2,10.7,6.5,9.9
								c4.5-0.7,36.7-9.1,46.3-15.3c9.5-6.2,30.5-9.1,34.3-12.1c3.8-3-7.3-25.3-10.9-29.9
								C1141.6,1786.4,1118.3,1799.9,1118.3,1799.9z"/>
						</g>
					</g>
				</g>
			</g>
			<g>
				<polygon fill="#50558A" points="1141.1,1785.4 1145.1,1791 1118.3,1799.9 1116.6,1791 				"/>
			</g>
			<g>
				<g>
					<path fill="#EEA886" d="M907.1,1236.6c0,0-24.8-13.5-27.1-13c-2.3,0.6-2.9,2-0.6,3.4c2.3,1.4,23.6,13.8,23.6,13.8
						s-31.8-10.8-33.8-10.8c-1.2,0-2.4,2.8-1.3,3.6c1.2,0.8,32.1,13.5,32.1,13.5s-29.7-10-31.3-9.5c-1.5,0.5-2,3.3,0.1,4.2
						c2.2,0.9,29.2,11.9,29.2,11.9s-22-5.9-23.1-4.5c-0.7,0.8-1.9,3.1,3.8,4.5c5.7,1.3,18.9,6,18.9,6L907.1,1236.6z"/>
				</g>
			</g>
			<g>
				<g>
					<g>
						<path fill="#EEA886" d="M933.4,1256.9c0,0-7.9-5-7.5-10.5c0.3-4.7-2.4-11.1-3.3-13.1c-1.1-2.6-1.8-12-4.9-10.6
							c-3.1,1.4,0.4,15.5,0.6,18.6c0.2,3.1-10.3-5.4-13.3-5.4c-3,0-14.8,19-7,24c7.8,5,19.1,4.8,20.3,6c1.2,1.2,5.6,3.8,5.6,3.8
							L933.4,1256.9z"/>
					</g>
				</g>
			</g>
			<g>
				<g>
					<path fill="#EEA886" d="M1018.1,1319.4c-6.1,13.1-7.7,12.1-14.8,13.9c-15.3,3.8-82.7-65.6-82.7-65.6l9.9-13
						c0,0,17.7,13.2,32.5,23.2c9.2,6.2,32,23,33.6,22c1.6-1,21.3-36.8,23.5-41.7c2.3-4.9,18.1-40,23.8-44.2
						C1044,1213.9,1057.5,1234.5,1018.1,1319.4z"/>
				</g>
			</g>
			<g>
				<g>
					<path fill="#2C405C" d="M1034.9,1492.3c0,0,5.4,39.7,10.9,77.8v0c1,7.2,2.1,14.4,3.1,21.3v0c3.6,23.9,6.7,43.7,7.9,47.2
						c3.4,10,51.6,159.1,51.6,159.1s37.4-6.9,38.7-11c0,0-40.8-156.2-40.3-161.8c0.5-5.6-5.1-165-5.1-165
						S1036.8,1483.1,1034.9,1492.3z"/>
				</g>
			</g>
			<g>
				<g>
					<path fill="#2C405C" d="M1004.4,1442.9c0,0-33.8,162-36.6,173.9c-2.8,11.9-19,193.7-19,193.7s15.5,1.2,42.2,0
						c0,0,29.2-183.9,32.2-189.7c11.7-22.2,56.7-133.7,62.4-149.1c5.6-15.4,15.5-29.3,15.5-29.3S1062,1412.4,1004.4,1442.9z"/>
				</g>
			</g>
			<g>
				<g>
					<path fill="#D44040" d="M1078.7,1184.1c0,0-34.5,26.2-44.3,36.5c-9.8,10.4-31.1,51.8-29.4,65c6.4,50.5,4.3,95,2.2,129.3
						c-1.6,26.3-9.7,41.5-7.9,41.8c6.7,1.3,93.2,21.7,106.1,25.8c0,0-0.3-96.8-4.4-109.1C1096.8,1361.1,1115.1,1233.7,1078.7,1184.1
						z"/>
				</g>
			</g>
			<g>
				<g>
					<g>
						<path fill="#EEA886" d="M1078.7,1184.1c0,0-63.7,69.3-60.1,61.5c11.4-24.7,23.8-32.6,23.7-37.7c-0.1-3.9-1.4-15.3-1.6-19.1
							c-0.4-7.2-0.8-13.1-0.8-13.1s32.2-43.6,30.5-28.6C1068.8,1162.1,1078.7,1184.1,1078.7,1184.1z"/>
					</g>
				</g>
			</g>
			<g>
				<g>
					<g>
						<path fill="#EEA886" d="M1019.9,1101.7c0,0-9.1,20.3-9.3,25c-0.2,4.8,0.9,8.5,0.1,14c-0.9,5.7-5.9,17.6-5.3,20.9
							c0.6,4,9.1,2.1,10.1,8.7c1,6.6,6.9,19.1,10,19.4c7.8,0.8,38-10.9,40-17.2c2-6.2,13.5-41,17-47.6c3.5-6.6-52.1-44-57.4-33.6
							C1019.9,1101.7,1019.9,1101.7,1019.9,1101.7z"/>
					</g>
				</g>
			</g>
			<g>
				<path fill="#E8734D" d="M1096,1118.2c4.3-17.3-15.6-19.7-15.6-19.7s-12.7-15.3-43.8-14.1s-27,41.8-27,41.8s21.5-2.8,30.8-0.3
					c0,0,0.8,17.3-0.3,21.6l11.7-0.8c0,0-1-15.4,4.6-16c5.6-0.6,6.9,32.6,17.3,40.1c0,0,0.1-2.3,1.5-4.6l0,0l0,0
					c2.2-3.6,5.5-9.7,8.4-16.8C1088.5,1139.4,1093.8,1127,1096,1118.2z"/>
			</g>
			<g>
				<g>
					<g>
						<path fill="#EEA886" d="M1048.7,1134.2c0,0,4.6-11.6,14.7-3.9c7.4,5.7-0.7,25.3-7.9,25.1
							C1048.1,1155.2,1045.4,1144.4,1048.7,1134.2z"/>
					</g>
				</g>
			</g>
			<g>
				<path fill="#C48A6F" d="M1067.3,1167c0,0-1.6,6.2-3.3,7.6s-9.7,7.7-23.4,11.7l1,12.3C1041.5,1198.7,1068.3,1188.9,1067.3,1167z"
					/>
			</g>
			<g>
				<g>
					<path fill="#EEA987" d="M1024.3,1456.7c0,0-4.3,8.3-7.4,11.5c-3,3,17.1,22.7,17.1,22.7s9-18.7,8.8-20.6
						C1042.6,1468.4,1024.3,1456.7,1024.3,1456.7z"/>
				</g>
			</g>
			<g>
				<path fill="#2C405C" d="M1008.5,1464.6c0,0-8.8,40.2-8.5,52.5c0.3,12.4,46.9-18.6,44.8-30.9L1008.5,1464.6z"/>
			</g>
			<g>
				<path fill="#942D2D" d="M1064.6,1286.3l18.2,61.8l-39.2,72.6c0,0,26.8-61.8,26-77.5C1068.8,1327.5,1064.6,1286.3,1064.6,1286.3z
					"/>
			</g>
			<g>
				<path fill="#172230" d="M1045.7,1570.1L1045.7,1570.1c1,7.3,2.1,14.4,3.1,21.3c5.7-13.1,24.1-87.1,24.5-88.4L1045.7,1570.1z"/>
			</g>
			<g>
				<path fill="#323657" d="M1103.5,1342.6c1.3,0,2.1,0,2.3-0.1l-1.1-18.1c-0.2,0-22.4,1-37.3-13c-9.4-8.8-14.2-21.9-14.4-39.1
					c-0.5-55.4,37.8-61.1,39.4-61.3l-2.2-18c-1.5,0.2-15,2-28.5,12.8c-12.5,9.9-27.2,29.6-26.9,66.7c0.2,22.4,7,40,20.2,52.3
					C1072.8,1341.2,1096.1,1342.6,1103.5,1342.6z"/>
			</g>
			<g>
				<g>
					<path fill="#EEA886" d="M1090.3,1229.2c0,0,25.9,115.3,27.7,127.5c1.7,11.5-76.7,118.1-76.7,118.1l-20.7-11.1
						c0,0,60-111.3,60-116.3s-27.3-101.1-27.3-101.1s-2.1-16.9,11.3-24C1085.6,1211.2,1090.3,1229.2,1090.3,1229.2z"/>
				</g>
			</g>
			<g>
				<path fill="#EB4747" d="M1066.4,1214.5c0,0-28.6,9.2-7.1,63.5l42.1-10.6C1101.4,1267.4,1098.3,1200.9,1066.4,1214.5z"/>
			</g>
		</g>
	</g>
</g>
<rect x="0" opacity="0.62" fill="#FFFFFF" stroke="#000000" stroke-miterlimit="10" width="3480.5" height="2000"/>
</svg>
