<?xml version="1.0" standalone="no"?>
<!DOCTYPE svg PUBLIC "-//W3C//DTD SVG 20010904//EN"
 "http://www.w3.org/TR/2001/REC-SVG-20010904/DTD/svg10.dtd">
<svg version="1.0" xmlns="http://www.w3.org/2000/svg"
 width="626.000000pt" height="359.000000pt" viewBox="0 0 626.000000 359.000000"
 preserveAspectRatio="xMidYMid meet">
<metadata>
Created by potrace 1.15, written by Peter Selinger 2001-2017
</metadata>
<g transform="translate(0.000000,359.000000) scale(0.100000,-0.100000)"
fill="#000000" stroke="none">
<path d="M4127 3553 c17 -113 89 -197 217 -253 42 -18 76 -36 76 -40 0 -4 -11
-15 -25 -24 -14 -9 -23 -21 -20 -26 4 -6 1 -10 -5 -10 -23 0 -4 -80 26 -111
56 -59 104 -73 265 -79 162 -6 188 -15 213 -73 30 -72 117 -117 229 -120 l57
-1 0 -159 0 -158 -22 7 -23 6 23 -24 c22 -24 22 -25 22 -385 0 -406 -4 -385
79 -431 l41 -23 0 603 0 604 36 35 c31 29 35 39 32 72 l-4 38 51 -6 c27 -3 67
-8 88 -11 l37 -6 0 -1254 c0 -1058 2 -1254 14 -1254 21 0 38 27 32 48 -11 34
5 50 75 77 69 27 129 74 129 101 0 24 17 15 26 -13 6 -18 11 52 14 202 l5 230
98 1 c53 0 100 4 103 7 11 11 -8 29 -26 24 -11 -3 -21 1 -24 8 -6 18 -76 16
-98 -2 -10 -9 -25 -12 -37 -8 -21 6 -21 12 -21 299 l0 293 40 61 c26 42 57 73
92 96 62 40 101 80 191 198 37 47 81 98 99 112 18 14 29 28 25 32 -10 10 -42
-21 -107 -106 -78 -103 -149 -169 -217 -205 -34 -18 -70 -47 -90 -73 l-33 -44
0 691 c0 749 -3 709 51 681 25 -14 25 -51 -1 -126 -45 -129 5 -175 208 -190
68 -5 95 -3 125 9 64 27 67 42 67 402 l0 315 -1069 0 -1070 0 6 -37z m1461
-2168 c-1 -165 -4 -401 -7 -525 -5 -159 -7 -43 -8 400 0 344 4 580 7 525 4
-55 8 -235 8 -400z"/>
<path d="M4408 2795 c4 -24 2 -25 -43 -25 l-46 0 21 -27 c79 -102 191 -109
288 -20 27 25 29 41 3 27 -34 -18 -76 -12 -100 14 -27 29 -80 56 -109 56 -15
0 -18 -5 -14 -25z"/>
<path d="M3860 2497 c0 -22 -32 -44 -73 -51 -49 -9 -126 -85 -101 -99 9 -5 41
-7 72 -5 47 4 60 10 84 37 23 25 28 41 28 81 0 28 -2 50 -5 50 -3 0 -5 -6 -5
-13z"/>
<path d="M4410 1735 c-30 -32 -77 -34 -82 -4 l-3 21 -26 -21 c-24 -18 -27 -29
-33 -118 -8 -105 -12 -117 -63 -179 -27 -33 -30 -43 -18 -47 16 -7 79 61 102
110 11 25 12 19 7 -52 -5 -75 -37 -229 -52 -252 -4 -5 -25 -13 -47 -16 -38 -6
-40 -5 -41 19 -2 31 -33 55 -88 70 -28 7 -42 17 -44 30 -3 17 -12 19 -117 19
l-114 0 -5 -30 c-3 -16 -8 -52 -12 -79 -9 -64 -17 -47 -44 89 -12 61 -24 118
-26 128 -5 14 1 17 35 17 76 0 42 16 -54 26 -72 7 -95 6 -95 -3 0 -7 19 -13
48 -15 l47 -3 27 -130 c15 -71 27 -147 28 -167 0 -20 4 -39 8 -42 5 -3 5 -35
1 -73 -5 -37 -8 -100 -8 -140 l-1 -71 -30 11 c-86 32 -143 -106 -78 -188 25
-32 79 -34 107 -4 19 20 24 21 126 11 99 -10 107 -12 134 -41 36 -39 73 -40
106 -5 50 53 41 160 -15 192 -34 20 -37 32 -46 199 l-7 121 98 -1 98 -2 28
-104 c15 -57 30 -105 33 -108 2 -3 14 -2 27 2 20 7 21 11 15 71 -4 35 -11 76
-17 91 -16 44 -6 54 53 51 l53 -3 7 -50 c3 -27 7 -100 7 -161 1 -105 0 -111
-23 -131 -50 -44 -132 -93 -154 -93 l-22 0 20 -40 c24 -47 45 -60 100 -60 33
0 48 6 71 29 16 16 29 34 29 40 0 5 -23 11 -52 13 l-52 3 39 43 c24 26 48 42
62 42 20 0 23 5 23 42 0 23 7 80 16 127 10 52 14 106 10 137 -4 38 -2 53 7 57
7 3 153 5 325 6 l312 2 0 -51 c0 -27 -2 -50 -5 -50 -3 0 -33 14 -66 31 -68 34
-66 34 -169 -20 l-64 -33 29 -16 c17 -8 33 -20 37 -26 5 -6 8 -7 8 -1 0 6 7
-1 15 -15 9 -15 14 -19 15 -10 0 13 1 13 10 0 8 -13 10 -12 10 3 0 15 7 18 38
16 21 -2 44 1 51 6 9 5 12 4 7 -3 -3 -6 -2 -13 4 -17 5 -3 10 3 10 13 0 22 70
70 70 49 1 -7 3 -52 6 -100 7 -117 6 -119 -49 -99 -42 15 -44 15 -65 -6 -28
-28 -47 -28 -66 -1 -14 21 -15 21 -70 4 -51 -16 -60 -23 -91 -74 -38 -64 -75
-145 -75 -167 0 -8 27 -32 60 -53 33 -20 58 -40 55 -43 -3 -2 -40 2 -83 10
-92 18 -124 12 -141 -24 -14 -32 -9 -39 60 -90 54 -39 151 -74 214 -77 33 -2
40 -6 45 -26 5 -22 11 -25 54 -26 32 0 56 5 70 16 28 22 120 49 167 49 21 0
39 4 41 9 2 6 32 29 68 53 71 47 80 66 55 105 -16 23 -22 25 -71 21 l-54 -5 2
321 3 321 63 0 62 0 0 53 c0 52 -1 53 -27 51 -35 -3 -86 11 -95 25 -4 6 -8 90
-8 186 l-1 175 -60 54 -59 53 0 -227 c0 -213 -1 -229 -21 -256 -25 -35 -42
-37 -57 -5 -14 31 -78 52 -119 40 -15 -4 -45 -6 -66 -5 -32 2 -43 -3 -78 -38
-35 -35 -44 -39 -61 -30 -21 11 -109 8 -139 -5 -13 -6 -16 -2 -12 17 7 36 -10
61 -61 88 -41 21 -46 28 -52 69 -4 25 -15 69 -25 99 -11 30 -19 56 -19 58 0 1
18 3 39 3 49 0 71 8 71 25 0 30 -53 174 -68 188 -32 28 -57 29 -82 2z m-476
-649 c21 -100 46 -267 46 -304 0 -68 -12 -82 -70 -82 -27 0 -51 4 -54 8 -3 5
-12 43 -21 85 -14 69 -14 85 1 178 21 137 26 148 63 147 24 -1 30 -6 35 -32z"/>
<path d="M1263 1600 c-12 -5 -27 -18 -33 -29 -6 -12 -17 -21 -24 -21 -15 0
-26 -21 -26 -47 0 -9 11 -31 25 -49 14 -18 25 -39 25 -47 0 -22 44 -57 73 -57
33 0 48 28 24 45 -21 15 -22 25 -3 25 32 0 53 137 26 164 -20 20 -60 27 -87
16z"/>
<path d="M1883 1402 c-68 -78 -75 -95 -71 -160 l3 -57 -192 -3 c-169 -2 -191
-4 -186 -18 5 -13 0 -15 -24 -11 -39 6 -65 -8 -43 -23 8 -5 22 -6 30 -2 8 4
105 7 214 7 151 0 200 -3 203 -12 4 -10 -45 -13 -221 -13 l-226 0 0 -25 0 -25
220 0 c187 0 220 -2 220 -15 0 -12 -37 -15 -232 -18 -141 -2 -259 -8 -300 -16
-66 -14 -124 -9 -113 9 4 6 -11 10 -34 10 -37 0 -41 -2 -41 -25 0 -22 4 -25
35 -25 32 0 51 -18 23 -22 -7 0 -17 -2 -23 -3 -5 -2 -16 -3 -22 -4 -7 0 -13
-10 -13 -21 0 -16 7 -20 31 -20 24 0 30 -4 27 -17 -2 -11 -14 -19 -31 -21 -21
-3 -27 -9 -27 -28 0 -15 6 -24 15 -24 13 0 15 -26 15 -170 0 -163 1 -170 20
-170 12 0 20 7 21 18 1 9 7 -19 14 -63 10 -61 10 -88 2 -113 -11 -31 -9 -36
12 -53 25 -20 57 -24 81 -10 12 8 9 14 -13 37 -15 15 -30 38 -33 50 -3 13 -4
98 -3 189 4 180 6 185 62 185 l27 0 1 -97 c2 -135 2 -137 22 -141 15 -3 17 8
17 122 0 69 4 126 9 126 4 0 13 -31 20 -69 6 -39 29 -121 51 -183 26 -73 36
-116 30 -122 -32 -32 28 -72 95 -64 30 3 48 28 21 28 -9 0 -29 12 -45 27 -26
25 -32 42 -55 168 -14 77 -28 165 -31 195 -3 30 -8 69 -10 85 l-5 30 169 -3
168 -3 -13 -62 c-17 -81 -39 -286 -39 -365 0 -60 -1 -63 -32 -77 -17 -8 -40
-15 -52 -15 -22 0 -28 -14 -10 -26 6 -3 44 -3 86 1 74 7 75 7 70 33 -3 14 -1
33 4 41 4 9 19 86 32 172 15 95 32 170 45 195 l20 39 6 -30 c15 -71 110 -365
118 -365 16 0 -3 -20 -44 -46 -63 -40 -34 -50 51 -18 64 24 72 29 66 48 -54
186 -85 332 -85 402 l0 79 123 -3 122 -3 -4 -42 c-2 -24 -13 -53 -26 -69 -24
-28 -45 -121 -45 -196 0 -72 0 -72 116 -72 103 0 104 0 110 26 7 29 -2 141
-16 194 -10 34 -72 110 -91 110 -5 0 -9 11 -9 25 0 24 2 25 75 25 l75 0 0
-170 c0 -144 2 -170 15 -170 15 0 17 26 19 257 l1 83 28 0 c22 0 27 4 27 25
l0 25 -262 2 c-226 3 -263 5 -263 18 0 13 32 15 218 18 209 2 217 3 217 22 0
19 -7 20 -215 20 -198 0 -215 1 -215 18 0 16 16 17 215 14 l215 -3 0 26 0 25
-215 0 c-184 0 -215 2 -215 15 0 13 31 15 215 15 l215 0 0 25 0 25 -168 0
c-115 0 -172 -4 -180 -12 -6 -6 -31 -11 -54 -11 -42 0 -44 -2 -98 -78 -46 -66
-57 -76 -72 -68 -17 9 -14 19 39 119 l58 109 -17 63 c-17 67 -13 78 28 78 16
0 23 -8 28 -30 5 -27 9 -30 42 -30 35 0 36 1 31 28 -8 40 -45 136 -60 154 -6
9 -24 18 -38 22 -23 5 -33 -2 -76 -52z"/>
<path d="M420 1333 c-23 -9 -60 -45 -76 -75 -10 -19 -22 -28 -40 -28 -36 0
-74 -42 -74 -82 l0 -33 430 3 430 2 0 -30 c0 -29 2 -30 44 -30 37 0 45 4 50
23 9 34 9 34 -45 52 -51 17 -51 17 -45 54 12 79 13 76 -22 79 -19 2 -47 -1
-63 -7 -21 -7 -36 -6 -58 5 -41 20 -74 10 -117 -38 -34 -38 -37 -39 -65 -28
-28 12 -98 9 -147 -6 -21 -6 -22 -4 -16 20 9 38 -18 73 -79 102 -51 23 -78 28
-107 17z"/>
</g>
</svg>
